G04 Layer: TopSilkscreenLayer*
G04 EasyEDA v6.5.54, 2026-05-09 15:50:31*
G04 cd594a6c01a948f4b602ccfdf36f2c73,c8a970a421e74b358fd231c7056144b7,10*
G04 Gerber Generator version 0.2*
G04 Scale: 100 percent, Rotated: No, Reflected: No *
G04 Dimensions in millimeters *
G04 leading zeros omitted , absolute positions ,4 integer and 5 decimal *
%FSLAX45Y45*%
%MOMM*%

%ADD10C,0.2032*%
%ADD11C,0.1524*%
%ADD12C,0.2540*%
%ADD13C,0.0126*%

%LPD*%
G36*
X263398Y-1020876D02*
G01*
X258927Y-1025398D01*
X258927Y-1432356D01*
X332028Y-1432356D01*
X332028Y-1094282D01*
X335686Y-1092860D01*
X667562Y-1092657D01*
X672084Y-1094384D01*
X672084Y-1432356D01*
X667562Y-1434084D01*
X336600Y-1434084D01*
X332028Y-1432356D01*
X258927Y-1432356D01*
X258927Y-1501343D01*
X263398Y-1505813D01*
X740410Y-1505813D01*
X743864Y-1502410D01*
X743864Y-1024331D01*
X740410Y-1020876D01*
G37*
G36*
X882142Y-1020876D02*
G01*
X878687Y-1024331D01*
X878687Y-1089202D01*
X882142Y-1092657D01*
X1012952Y-1092657D01*
X1016406Y-1096060D01*
X1016406Y-1155192D01*
X1012952Y-1158646D01*
X881938Y-1158646D01*
X878738Y-1162456D01*
X878705Y-1165402D01*
X1088136Y-1165402D01*
X1091387Y-1161491D01*
X1219606Y-1161491D01*
X1223010Y-1164945D01*
X1223010Y-1224076D01*
X1219606Y-1227480D01*
X1157376Y-1227480D01*
X1154176Y-1231290D01*
X1153414Y-1295654D01*
X1088847Y-1295654D01*
X1088136Y-1165402D01*
X878705Y-1165402D01*
X877976Y-1226769D01*
X813663Y-1227582D01*
X809853Y-1230731D01*
X809853Y-1233982D01*
X881532Y-1233982D01*
X882903Y-1230376D01*
X944118Y-1230376D01*
X947572Y-1233830D01*
X947572Y-1361998D01*
X943610Y-1365300D01*
X882294Y-1364488D01*
X881532Y-1233982D01*
X809853Y-1233982D01*
X809853Y-1364894D01*
X813663Y-1368044D01*
X877976Y-1368806D01*
X877976Y-1433372D01*
X813663Y-1434134D01*
X809853Y-1437335D01*
X809853Y-1440637D01*
X881532Y-1440637D01*
X882903Y-1436979D01*
X944371Y-1436979D01*
X947623Y-1440891D01*
X946861Y-1502257D01*
X882294Y-1502257D01*
X881532Y-1440637D01*
X809853Y-1440637D01*
X809853Y-1502613D01*
X813663Y-1505762D01*
X877976Y-1506524D01*
X878350Y-1567891D01*
X950366Y-1567891D01*
X951179Y-1506524D01*
X1015492Y-1505762D01*
X1019302Y-1502613D01*
X1019302Y-1302664D01*
X1022756Y-1299159D01*
X1084580Y-1299972D01*
X1084612Y-1302918D01*
X1156970Y-1302918D01*
X1158341Y-1299210D01*
X1219809Y-1299210D01*
X1223111Y-1303172D01*
X1222298Y-1364488D01*
X1157732Y-1364488D01*
X1156970Y-1302918D01*
X1084612Y-1302918D01*
X1085342Y-1364945D01*
X1089101Y-1368044D01*
X1153414Y-1368806D01*
X1153414Y-1433372D01*
X1089101Y-1434134D01*
X1085291Y-1437335D01*
X1085291Y-1499717D01*
X1157020Y-1499717D01*
X1157020Y-1438859D01*
X1159002Y-1436928D01*
X1222298Y-1437690D01*
X1222298Y-1502257D01*
X1160983Y-1503019D01*
X1157020Y-1499717D01*
X1085291Y-1499717D01*
X1085291Y-1568399D01*
X1225905Y-1568399D01*
X1225905Y-1507744D01*
X1227886Y-1505762D01*
X1291183Y-1506524D01*
X1291945Y-1567891D01*
X1288694Y-1571853D01*
X1229360Y-1571853D01*
X1225905Y-1568399D01*
X1085291Y-1568399D01*
X1085291Y-1640128D01*
X1088694Y-1643583D01*
X1219606Y-1643583D01*
X1223010Y-1646986D01*
X1223010Y-1706321D01*
X1294790Y-1706321D01*
X1294790Y-1646986D01*
X1298194Y-1643583D01*
X1357528Y-1643583D01*
X1360830Y-1647494D01*
X1360068Y-1708861D01*
X1298702Y-1709623D01*
X1294790Y-1706321D01*
X1223010Y-1706321D01*
X1219149Y-1709572D01*
X1020013Y-1708861D01*
X1019251Y-1575663D01*
X1016050Y-1571853D01*
X953668Y-1571853D01*
X950366Y-1567891D01*
X878350Y-1567891D01*
X878738Y-1639722D01*
X881938Y-1643583D01*
X944371Y-1643583D01*
X947623Y-1647494D01*
X946861Y-1708861D01*
X813409Y-1708861D01*
X812698Y-1575663D01*
X809498Y-1571853D01*
X606704Y-1571853D01*
X603250Y-1575257D01*
X603250Y-1637233D01*
X599795Y-1640687D01*
X537819Y-1640687D01*
X534365Y-1644142D01*
X534365Y-1647494D01*
X674928Y-1647494D01*
X678180Y-1643583D01*
X737768Y-1643583D01*
X741019Y-1647494D01*
X740257Y-1708861D01*
X675690Y-1708861D01*
X674928Y-1647494D01*
X534365Y-1647494D01*
X534365Y-1706118D01*
X530910Y-1709572D01*
X468731Y-1709572D01*
X465582Y-1713382D01*
X464769Y-1777695D01*
X331571Y-1778457D01*
X327761Y-1781657D01*
X327761Y-1846732D01*
X331216Y-1850136D01*
X393192Y-1850136D01*
X396646Y-1853590D01*
X396646Y-1981098D01*
X468376Y-1981098D01*
X469087Y-1782013D01*
X602284Y-1781251D01*
X606094Y-1778050D01*
X606094Y-1715871D01*
X609600Y-1712366D01*
X671372Y-1713128D01*
X672185Y-1777492D01*
X675335Y-1781302D01*
X740613Y-1781302D01*
X743762Y-1777492D01*
X744575Y-1713128D01*
X809142Y-1713128D01*
X809174Y-1716074D01*
X950366Y-1716074D01*
X951788Y-1712366D01*
X1015695Y-1713128D01*
X1016457Y-1774494D01*
X1015873Y-1775206D01*
X1363624Y-1775206D01*
X1363624Y-1714347D01*
X1365605Y-1712366D01*
X1428902Y-1713128D01*
X1428902Y-1777695D01*
X1367586Y-1778457D01*
X1363624Y-1775206D01*
X1015873Y-1775206D01*
X1013155Y-1778457D01*
X951179Y-1777695D01*
X950366Y-1716074D01*
X809174Y-1716074D01*
X809904Y-1778101D01*
X813663Y-1781251D01*
X946861Y-1782013D01*
X947623Y-1843328D01*
X944371Y-1847291D01*
X882142Y-1847291D01*
X878687Y-1850745D01*
X878687Y-1912721D01*
X875284Y-1916175D01*
X813308Y-1916175D01*
X809853Y-1919579D01*
X809853Y-1984451D01*
X813308Y-1987905D01*
X875284Y-1987905D01*
X878687Y-1991360D01*
X878687Y-2053336D01*
X882142Y-2056739D01*
X944371Y-2056739D01*
X947623Y-2060702D01*
X946861Y-2122068D01*
X816610Y-2122779D01*
X812698Y-2119528D01*
X812698Y-2057095D01*
X808888Y-2053945D01*
X744575Y-2053183D01*
X743762Y-1988820D01*
X740664Y-1985060D01*
X675690Y-1984298D01*
X675690Y-1919732D01*
X740003Y-1918970D01*
X743864Y-1915820D01*
X743864Y-1850745D01*
X740410Y-1847291D01*
X675335Y-1847291D01*
X672185Y-1851101D01*
X671372Y-1915414D01*
X610057Y-1916226D01*
X606094Y-1912924D01*
X606094Y-1850745D01*
X602640Y-1847291D01*
X537616Y-1847291D01*
X534416Y-1851152D01*
X533654Y-1984298D01*
X471627Y-1985060D01*
X468376Y-1981098D01*
X396646Y-1981098D01*
X396646Y-1981555D01*
X393192Y-1985010D01*
X262331Y-1985010D01*
X258927Y-1988464D01*
X258927Y-2119325D01*
X330606Y-2119325D01*
X330606Y-2060193D01*
X334060Y-2056739D01*
X533806Y-2056739D01*
X537260Y-2053336D01*
X537260Y-1989785D01*
X539191Y-1987854D01*
X671372Y-1988616D01*
X671372Y-2053183D01*
X607060Y-2053945D01*
X603250Y-2057095D01*
X603250Y-2119325D01*
X674979Y-2119325D01*
X674979Y-2058670D01*
X676960Y-2056688D01*
X740257Y-2057501D01*
X741019Y-2118817D01*
X737768Y-2122779D01*
X678434Y-2122779D01*
X674979Y-2119325D01*
X603250Y-2119325D01*
X599795Y-2122779D01*
X468934Y-2122779D01*
X465531Y-2126183D01*
X465531Y-2188159D01*
X462076Y-2191613D01*
X402945Y-2191613D01*
X399491Y-2188159D01*
X399491Y-2126183D01*
X396087Y-2122779D01*
X334060Y-2122779D01*
X330606Y-2119325D01*
X258927Y-2119325D01*
X258927Y-2267305D01*
X399440Y-2267305D01*
X402742Y-2263343D01*
X462280Y-2263343D01*
X465582Y-2267305D01*
X464769Y-2328621D01*
X400202Y-2328621D01*
X399440Y-2267305D01*
X258927Y-2267305D01*
X258927Y-2466492D01*
X262331Y-2469946D01*
X327152Y-2469946D01*
X330606Y-2466492D01*
X330606Y-2335428D01*
X334568Y-2332177D01*
X395935Y-2332939D01*
X396646Y-2466136D01*
X399846Y-2469946D01*
X465175Y-2469946D01*
X468325Y-2466136D01*
X469087Y-2332939D01*
X533450Y-2332177D01*
X537260Y-2329027D01*
X537260Y-2197912D01*
X540664Y-2194509D01*
X599795Y-2194509D01*
X603250Y-2197912D01*
X603250Y-2257298D01*
X674979Y-2257298D01*
X674979Y-2197912D01*
X678434Y-2194509D01*
X875487Y-2194509D01*
X878789Y-2198420D01*
X877976Y-2259787D01*
X678891Y-2260498D01*
X674979Y-2257298D01*
X603250Y-2257298D01*
X603250Y-2326081D01*
X881532Y-2326081D01*
X882294Y-2264105D01*
X947267Y-2263292D01*
X950417Y-2259533D01*
X951179Y-2126335D01*
X1015492Y-2125573D01*
X1019302Y-2122424D01*
X1019302Y-1853590D01*
X1022705Y-1850136D01*
X1084681Y-1850136D01*
X1088136Y-1846732D01*
X1088136Y-1784756D01*
X1091590Y-1781302D01*
X1288440Y-1781302D01*
X1291894Y-1784756D01*
X1291894Y-1915566D01*
X1295349Y-1919020D01*
X1429258Y-1919020D01*
X1432458Y-1915160D01*
X1433220Y-1782013D01*
X1497533Y-1781251D01*
X1501343Y-1778050D01*
X1501343Y-1712772D01*
X1497533Y-1709623D01*
X1433220Y-1708861D01*
X1432458Y-1578610D01*
X1435709Y-1574698D01*
X1633016Y-1574698D01*
X1636268Y-1578660D01*
X1635506Y-1639976D01*
X1571142Y-1640738D01*
X1567332Y-1643938D01*
X1567332Y-1984654D01*
X1571142Y-1987854D01*
X1635506Y-1988616D01*
X1635506Y-2053183D01*
X1502105Y-2053183D01*
X1501292Y-1988210D01*
X1497482Y-1985010D01*
X1157732Y-1984298D01*
X1157732Y-1919732D01*
X1222095Y-1918970D01*
X1225905Y-1915820D01*
X1225905Y-1850745D01*
X1222451Y-1847291D01*
X1157376Y-1847291D01*
X1154176Y-1851101D01*
X1153414Y-1915414D01*
X1089101Y-1916226D01*
X1085291Y-1919376D01*
X1085291Y-1984654D01*
X1089101Y-1987854D01*
X1153414Y-1988616D01*
X1153414Y-2053183D01*
X1089101Y-2053945D01*
X1085291Y-2057095D01*
X1085291Y-2191054D01*
X1088694Y-2194509D01*
X1153769Y-2194509D01*
X1156970Y-2190648D01*
X1157732Y-2057501D01*
X1219098Y-2056688D01*
X1223010Y-2059990D01*
X1223010Y-2259939D01*
X1226464Y-2263343D01*
X1357528Y-2263343D01*
X1360830Y-2267305D01*
X1360068Y-2328621D01*
X1226870Y-2329383D01*
X1223010Y-2332583D01*
X1223010Y-2394762D01*
X1219606Y-2398217D01*
X1157376Y-2398217D01*
X1154176Y-2402027D01*
X1153448Y-2463647D01*
X1570228Y-2463647D01*
X1570228Y-2404516D01*
X1573631Y-2401112D01*
X1632762Y-2401112D01*
X1636217Y-2404516D01*
X1636217Y-2463647D01*
X1632762Y-2467102D01*
X1573631Y-2467102D01*
X1570228Y-2463647D01*
X1153448Y-2463647D01*
X1153414Y-2466390D01*
X1088847Y-2466390D01*
X1088847Y-2332939D01*
X1153210Y-2332177D01*
X1157020Y-2329027D01*
X1157020Y-2263952D01*
X1153566Y-2260498D01*
X1088491Y-2260498D01*
X1085342Y-2264308D01*
X1084580Y-2328621D01*
X885494Y-2329383D01*
X881532Y-2326081D01*
X603250Y-2326081D01*
X603250Y-2328773D01*
X606704Y-2332228D01*
X806602Y-2332228D01*
X809904Y-2336190D01*
X809142Y-2397506D01*
X675944Y-2398268D01*
X672084Y-2401468D01*
X672084Y-2466746D01*
X675944Y-2469946D01*
X809142Y-2470658D01*
X809603Y-2601620D01*
X881583Y-2601620D01*
X881583Y-2542286D01*
X885088Y-2538780D01*
X946861Y-2539542D01*
X946861Y-2604109D01*
X885545Y-2604871D01*
X881583Y-2601620D01*
X809603Y-2601620D01*
X809853Y-2672689D01*
X813053Y-2676550D01*
X875284Y-2676550D01*
X878687Y-2680004D01*
X878687Y-2741980D01*
X882142Y-2745435D01*
X947216Y-2745435D01*
X950417Y-2741574D01*
X951179Y-2608427D01*
X1015492Y-2607614D01*
X1019302Y-2604465D01*
X1019302Y-2539187D01*
X1015492Y-2535986D01*
X951179Y-2535224D01*
X950366Y-2470251D01*
X946607Y-2467102D01*
X813409Y-2466390D01*
X813409Y-2401824D01*
X1012494Y-2401062D01*
X1016406Y-2404313D01*
X1016406Y-2466746D01*
X1020216Y-2469896D01*
X1084580Y-2470658D01*
X1084612Y-2473604D01*
X1156970Y-2473604D01*
X1158341Y-2469946D01*
X1219809Y-2469946D01*
X1223111Y-2473909D01*
X1294688Y-2473909D01*
X1297990Y-2469946D01*
X1495298Y-2469946D01*
X1498549Y-2473909D01*
X1497787Y-2535224D01*
X1432814Y-2535986D01*
X1429664Y-2539746D01*
X1428902Y-2604109D01*
X1367586Y-2604871D01*
X1363624Y-2601620D01*
X1363624Y-2539187D01*
X1359814Y-2535986D01*
X1295501Y-2535224D01*
X1294688Y-2473909D01*
X1223111Y-2473909D01*
X1222298Y-2535224D01*
X1157732Y-2535224D01*
X1156970Y-2473604D01*
X1084612Y-2473604D01*
X1085342Y-2535021D01*
X1088440Y-2538780D01*
X1153414Y-2539542D01*
X1154176Y-2600858D01*
X1150924Y-2604820D01*
X1088694Y-2604820D01*
X1085291Y-2608275D01*
X1085291Y-2670251D01*
X1081836Y-2673705D01*
X1019860Y-2673705D01*
X1016406Y-2677109D01*
X1016406Y-2741980D01*
X1019860Y-2745435D01*
X1153566Y-2745435D01*
X1157020Y-2741980D01*
X1157020Y-2680004D01*
X1160475Y-2676550D01*
X1222705Y-2676550D01*
X1225854Y-2672689D01*
X1226616Y-2539542D01*
X1291183Y-2539542D01*
X1291183Y-2741828D01*
X1226870Y-2742590D01*
X1223010Y-2745790D01*
X1223010Y-2749092D01*
X1294688Y-2749092D01*
X1296111Y-2745435D01*
X1357325Y-2745435D01*
X1360779Y-2748889D01*
X1360779Y-2807512D01*
X1432458Y-2807512D01*
X1433220Y-2608427D01*
X1497533Y-2607614D01*
X1501343Y-2604465D01*
X1501343Y-2540762D01*
X1503273Y-2538831D01*
X1632762Y-2538831D01*
X1636217Y-2542286D01*
X1636217Y-2601366D01*
X1632762Y-2604820D01*
X1570786Y-2604820D01*
X1567332Y-2608275D01*
X1567332Y-2670251D01*
X1707946Y-2670251D01*
X1707946Y-2473401D01*
X1711401Y-2469946D01*
X1908251Y-2469946D01*
X1911654Y-2473401D01*
X1911654Y-2532532D01*
X1983435Y-2532532D01*
X1983435Y-2473401D01*
X1986838Y-2469946D01*
X2045970Y-2469946D01*
X2049424Y-2473401D01*
X2049424Y-2532532D01*
X2045970Y-2535936D01*
X1986838Y-2535936D01*
X1983435Y-2532532D01*
X1911654Y-2532532D01*
X1911654Y-2670251D01*
X1911451Y-2670454D01*
X1983435Y-2670454D01*
X1983435Y-2611120D01*
X1986838Y-2607716D01*
X2046224Y-2607716D01*
X2049475Y-2611628D01*
X2048713Y-2672994D01*
X1987397Y-2673756D01*
X1983435Y-2670454D01*
X1911451Y-2670454D01*
X1908251Y-2673705D01*
X1711401Y-2673705D01*
X1707946Y-2670251D01*
X1567332Y-2670251D01*
X1563878Y-2673705D01*
X1501902Y-2673705D01*
X1498498Y-2677109D01*
X1498498Y-2741980D01*
X1501902Y-2745435D01*
X1633016Y-2745435D01*
X1636268Y-2749397D01*
X1635506Y-2810713D01*
X1571142Y-2811475D01*
X1567383Y-2814624D01*
X1567346Y-2817977D01*
X1639062Y-2817977D01*
X1640433Y-2814269D01*
X1839569Y-2814269D01*
X1842871Y-2818231D01*
X1842109Y-2879598D01*
X1639824Y-2879598D01*
X1639062Y-2817977D01*
X1567346Y-2817977D01*
X1566672Y-2879598D01*
X1505305Y-2880360D01*
X1501343Y-2877058D01*
X1501343Y-2814878D01*
X1497888Y-2811424D01*
X1435709Y-2811424D01*
X1432458Y-2807512D01*
X1360779Y-2807512D01*
X1360779Y-2808224D01*
X1356817Y-2811475D01*
X1295501Y-2810713D01*
X1294688Y-2749092D01*
X1223010Y-2749092D01*
X1223010Y-2811068D01*
X1226870Y-2814218D01*
X1291183Y-2815031D01*
X1291945Y-2876346D01*
X1288694Y-2880309D01*
X1226464Y-2880309D01*
X1223010Y-2883712D01*
X1223010Y-2945942D01*
X1363624Y-2945942D01*
X1363624Y-2886608D01*
X1367078Y-2883154D01*
X1426413Y-2883154D01*
X1429715Y-2887116D01*
X1428902Y-2948432D01*
X1367586Y-2949194D01*
X1363624Y-2945942D01*
X1223010Y-2945942D01*
X1223010Y-2948584D01*
X1226464Y-2952038D01*
X1288440Y-2952038D01*
X1291894Y-2955442D01*
X1291894Y-3017469D01*
X1295349Y-3020872D01*
X1429258Y-3020872D01*
X1432458Y-3017062D01*
X1433220Y-2952750D01*
X1494536Y-2951988D01*
X1498498Y-2955239D01*
X1498498Y-3017469D01*
X1501902Y-3020872D01*
X1567027Y-3020872D01*
X1570177Y-3017062D01*
X1570939Y-2883865D01*
X1635506Y-2883865D01*
X1636268Y-2948228D01*
X1639468Y-2952038D01*
X1770481Y-2952038D01*
X1773936Y-2955442D01*
X1773936Y-3017469D01*
X1777390Y-3020872D01*
X1842465Y-3020872D01*
X1845665Y-3017062D01*
X1846376Y-2883865D01*
X1910740Y-2883103D01*
X1914550Y-2879953D01*
X1914550Y-2748889D01*
X1918004Y-2745435D01*
X2049068Y-2745435D01*
X2052269Y-2741625D01*
X2053031Y-2677261D01*
X2117598Y-2677261D01*
X2118309Y-2807512D01*
X2115058Y-2811424D01*
X2052675Y-2811424D01*
X2049475Y-2815234D01*
X2048713Y-2879598D01*
X1984400Y-2880360D01*
X1980539Y-2883509D01*
X1980539Y-2945688D01*
X1980293Y-2945942D01*
X2052320Y-2945942D01*
X2052320Y-2885084D01*
X2054199Y-2883154D01*
X2115058Y-2883154D01*
X2118360Y-2887116D01*
X2117598Y-2948432D01*
X2056231Y-2949194D01*
X2052320Y-2945942D01*
X1980293Y-2945942D01*
X1977085Y-2949143D01*
X1915109Y-2949143D01*
X1911654Y-2952597D01*
X1911654Y-3017469D01*
X1915109Y-3020872D01*
X2117953Y-3020872D01*
X2121103Y-3017062D01*
X2121865Y-2952750D01*
X2186838Y-2951988D01*
X2190038Y-2948178D01*
X2190750Y-2677261D01*
X2255062Y-2676499D01*
X2258923Y-2673350D01*
X2258923Y-2608275D01*
X2255469Y-2604820D01*
X2190394Y-2604820D01*
X2187244Y-2608630D01*
X2186432Y-2672994D01*
X2121865Y-2672994D01*
X2121154Y-2473858D01*
X2124456Y-2469896D01*
X2186432Y-2470658D01*
X2187244Y-2535021D01*
X2190394Y-2538831D01*
X2255469Y-2538831D01*
X2258923Y-2535377D01*
X2258923Y-2470302D01*
X2255062Y-2467152D01*
X2190750Y-2466390D01*
X2190750Y-2401824D01*
X2255062Y-2401011D01*
X2258923Y-2397861D01*
X2258923Y-2332583D01*
X2255062Y-2329434D01*
X2190750Y-2328621D01*
X2189988Y-2195474D01*
X2186838Y-2191613D01*
X2121763Y-2191613D01*
X2118309Y-2195068D01*
X2118309Y-2329027D01*
X2122119Y-2332177D01*
X2186432Y-2332939D01*
X2186432Y-2397506D01*
X1987296Y-2398217D01*
X1983435Y-2395016D01*
X1983435Y-2332786D01*
X1979980Y-2329332D01*
X1918004Y-2329332D01*
X1914550Y-2325928D01*
X1914550Y-2263952D01*
X1911096Y-2260498D01*
X1849120Y-2260498D01*
X1845665Y-2257044D01*
X1845665Y-2194864D01*
X1841855Y-2191664D01*
X1777542Y-2190902D01*
X1776780Y-2126589D01*
X1773631Y-2122779D01*
X1708505Y-2122779D01*
X1705051Y-2126183D01*
X1705051Y-2191258D01*
X1708912Y-2194458D01*
X1773224Y-2195220D01*
X1773986Y-2256536D01*
X1770735Y-2260498D01*
X1708302Y-2260498D01*
X1705152Y-2264308D01*
X1704390Y-2328621D01*
X1643024Y-2329434D01*
X1639062Y-2326132D01*
X1639062Y-2195068D01*
X1635658Y-2191613D01*
X1570786Y-2191613D01*
X1567332Y-2195068D01*
X1567332Y-2325928D01*
X1563878Y-2329332D01*
X1501902Y-2329332D01*
X1498498Y-2332786D01*
X1498498Y-2394762D01*
X1707946Y-2394762D01*
X1707946Y-2334158D01*
X1709877Y-2332228D01*
X1770481Y-2332228D01*
X1773936Y-2335682D01*
X1773936Y-2394762D01*
X1770481Y-2398217D01*
X1711401Y-2398217D01*
X1707946Y-2394762D01*
X1498498Y-2394762D01*
X1495044Y-2398217D01*
X1366875Y-2398217D01*
X1363573Y-2394254D01*
X1364335Y-2332939D01*
X1428699Y-2332177D01*
X1432509Y-2329027D01*
X1432509Y-2195068D01*
X1429054Y-2191613D01*
X1367078Y-2191613D01*
X1363624Y-2188159D01*
X1363624Y-2059990D01*
X1367536Y-2056739D01*
X1497787Y-2057501D01*
X1498549Y-2121814D01*
X1501698Y-2125624D01*
X1635861Y-2125624D01*
X1639062Y-2121814D01*
X1639824Y-2057501D01*
X1704797Y-2056688D01*
X1707896Y-2052929D01*
X1708708Y-1988616D01*
X1841804Y-1987854D01*
X1845665Y-1984654D01*
X1845665Y-1919579D01*
X1842211Y-1916175D01*
X1708302Y-1916175D01*
X1705152Y-1919986D01*
X1704390Y-1984298D01*
X1639824Y-1984298D01*
X1639062Y-1854098D01*
X1642313Y-1850136D01*
X1704492Y-1850136D01*
X1707946Y-1846732D01*
X1707946Y-1781860D01*
X1704492Y-1778406D01*
X1642313Y-1778406D01*
X1639062Y-1774494D01*
X1639824Y-1644294D01*
X1704390Y-1644294D01*
X1705152Y-1708607D01*
X1708302Y-1712417D01*
X1773377Y-1712417D01*
X1776831Y-1708962D01*
X1776831Y-1643938D01*
X1773021Y-1640738D01*
X1708708Y-1639976D01*
X1707946Y-1437944D01*
X1704797Y-1434134D01*
X1639824Y-1433372D01*
X1639062Y-1372057D01*
X1642313Y-1368094D01*
X1704492Y-1368094D01*
X1707946Y-1364640D01*
X1707946Y-1162050D01*
X1704492Y-1158646D01*
X1504797Y-1158646D01*
X1501343Y-1155192D01*
X1501343Y-1024331D01*
X1497888Y-1020876D01*
X1433068Y-1020876D01*
X1429613Y-1024331D01*
X1429613Y-1155192D01*
X1426210Y-1158646D01*
X1364234Y-1158646D01*
X1360779Y-1162050D01*
X1360779Y-1226921D01*
X1364234Y-1230376D01*
X1632762Y-1230376D01*
X1636217Y-1233830D01*
X1636217Y-1292910D01*
X1632762Y-1296365D01*
X1501902Y-1296365D01*
X1498498Y-1299819D01*
X1498498Y-1361998D01*
X1494536Y-1365300D01*
X1433220Y-1364488D01*
X1432458Y-1300175D01*
X1429258Y-1296365D01*
X1364234Y-1296365D01*
X1360779Y-1299819D01*
X1360779Y-1364894D01*
X1364589Y-1368044D01*
X1428902Y-1368806D01*
X1428902Y-1433372D01*
X1364589Y-1434134D01*
X1360779Y-1437335D01*
X1360779Y-1499514D01*
X1432509Y-1499514D01*
X1432509Y-1438859D01*
X1434439Y-1436979D01*
X1495044Y-1436979D01*
X1498498Y-1440434D01*
X1498498Y-1499514D01*
X1570228Y-1499514D01*
X1570228Y-1440434D01*
X1573682Y-1436928D01*
X1635506Y-1437690D01*
X1636268Y-1499006D01*
X1633016Y-1502968D01*
X1573631Y-1502968D01*
X1570228Y-1499514D01*
X1498498Y-1499514D01*
X1495044Y-1502968D01*
X1435963Y-1502968D01*
X1432509Y-1499514D01*
X1360779Y-1499514D01*
X1360779Y-1499717D01*
X1356817Y-1503019D01*
X1295501Y-1502257D01*
X1294739Y-1437284D01*
X1290980Y-1434134D01*
X1226616Y-1433372D01*
X1226616Y-1368806D01*
X1291590Y-1368044D01*
X1294739Y-1364234D01*
X1295501Y-1093368D01*
X1359814Y-1092555D01*
X1363624Y-1089406D01*
X1363624Y-1024331D01*
X1360170Y-1020876D01*
X1295095Y-1020876D01*
X1291945Y-1024686D01*
X1291183Y-1089050D01*
X1229868Y-1089812D01*
X1225905Y-1086561D01*
X1225905Y-1024331D01*
X1222451Y-1020876D01*
X1157579Y-1020876D01*
X1154125Y-1024331D01*
X1154125Y-1086307D01*
X1150721Y-1089761D01*
X1091590Y-1089761D01*
X1088136Y-1086307D01*
X1088136Y-1024331D01*
X1084681Y-1020876D01*
G37*
G36*
X1570786Y-1020876D02*
G01*
X1567332Y-1024331D01*
X1567332Y-1089202D01*
X1570786Y-1092657D01*
X1704492Y-1092657D01*
X1707946Y-1089202D01*
X1707946Y-1024331D01*
X1704492Y-1020876D01*
G37*
G36*
X1778457Y-1020876D02*
G01*
X1773936Y-1025398D01*
X1773936Y-1432356D01*
X1847088Y-1432356D01*
X1847088Y-1094282D01*
X1850694Y-1092860D01*
X2182622Y-1092657D01*
X2187143Y-1094384D01*
X2187143Y-1432356D01*
X2182622Y-1434084D01*
X1851660Y-1434084D01*
X1847088Y-1432356D01*
X1773936Y-1432356D01*
X1773936Y-1501343D01*
X1778457Y-1505813D01*
X2255469Y-1505813D01*
X2258923Y-1502410D01*
X2258923Y-1024331D01*
X2255469Y-1020876D01*
G37*
G36*
X400100Y-1158646D02*
G01*
X396646Y-1162050D01*
X396646Y-1364640D01*
X400100Y-1368094D01*
X602640Y-1368094D01*
X606094Y-1364640D01*
X606094Y-1162050D01*
X602640Y-1158646D01*
G37*
G36*
X1915109Y-1158646D02*
G01*
X1911654Y-1162050D01*
X1911654Y-1364640D01*
X1915109Y-1368094D01*
X2117699Y-1368094D01*
X2121154Y-1364640D01*
X2121154Y-1162050D01*
X2117699Y-1158646D01*
G37*
G36*
X262331Y-1571853D02*
G01*
X258927Y-1575257D01*
X258927Y-1640128D01*
X262331Y-1643583D01*
X324307Y-1643583D01*
X327761Y-1646986D01*
X327761Y-1708962D01*
X331216Y-1712417D01*
X396087Y-1712417D01*
X399491Y-1708962D01*
X399491Y-1575257D01*
X396087Y-1571853D01*
G37*
G36*
X1915109Y-1571853D02*
G01*
X1911654Y-1575257D01*
X1911654Y-1708962D01*
X1915109Y-1712417D01*
X1977085Y-1712417D01*
X1980539Y-1715871D01*
X1980539Y-1775002D01*
X1977085Y-1778406D01*
X1777390Y-1778406D01*
X1773936Y-1781860D01*
X1773936Y-1844090D01*
X2052320Y-1844090D01*
X2052320Y-1784756D01*
X2055774Y-1781251D01*
X2117598Y-1782013D01*
X2117598Y-1846580D01*
X2056231Y-1847342D01*
X2052320Y-1844090D01*
X1773936Y-1844090D01*
X1773936Y-1846732D01*
X1777390Y-1850136D01*
X1908251Y-1850136D01*
X1911654Y-1853590D01*
X1911654Y-1984451D01*
X1915109Y-1987905D01*
X1977339Y-1987905D01*
X1980590Y-1991868D01*
X1979828Y-2053183D01*
X1846630Y-2053894D01*
X1842820Y-2057095D01*
X1842820Y-2122170D01*
X1846224Y-2125624D01*
X1980234Y-2125624D01*
X1983384Y-2121814D01*
X1984146Y-2057501D01*
X2045462Y-2056688D01*
X2049424Y-2059990D01*
X2049424Y-2122170D01*
X2052878Y-2125624D01*
X2117699Y-2125624D01*
X2121154Y-2122170D01*
X2121154Y-2060193D01*
X2124608Y-2056739D01*
X2255469Y-2056739D01*
X2258923Y-2053336D01*
X2258923Y-1988464D01*
X2255469Y-1985010D01*
X2055723Y-1985010D01*
X2052320Y-1981555D01*
X2052320Y-1922475D01*
X2055723Y-1919020D01*
X2117953Y-1919020D01*
X2121103Y-1915210D01*
X2121865Y-1850898D01*
X2183231Y-1850085D01*
X2187143Y-1853387D01*
X2187143Y-1915566D01*
X2190597Y-1919020D01*
X2255469Y-1919020D01*
X2258923Y-1915566D01*
X2258923Y-1781657D01*
X2255062Y-1778457D01*
X2121865Y-1777695D01*
X2121154Y-1644548D01*
X2117953Y-1640687D01*
X2055723Y-1640687D01*
X2052320Y-1637233D01*
X2052320Y-1575257D01*
X2048865Y-1571853D01*
G37*
G36*
X2190597Y-1640687D02*
G01*
X2187143Y-1644142D01*
X2187143Y-1708962D01*
X2190597Y-1712417D01*
X2255469Y-1712417D01*
X2258923Y-1708962D01*
X2258923Y-1644142D01*
X2255469Y-1640687D01*
G37*
G36*
X1983993Y-2191613D02*
G01*
X1980539Y-2195068D01*
X1980539Y-2259939D01*
X1983993Y-2263343D01*
X2048865Y-2263343D01*
X2052320Y-2259939D01*
X2052320Y-2195068D01*
X2048865Y-2191613D01*
G37*
G36*
X537819Y-2398217D02*
G01*
X534365Y-2401671D01*
X534365Y-2466492D01*
X537819Y-2469946D01*
X602640Y-2469946D01*
X606094Y-2466492D01*
X606094Y-2401671D01*
X602640Y-2398217D01*
G37*
G36*
X263398Y-2535936D02*
G01*
X258927Y-2540457D01*
X258927Y-2947416D01*
X332028Y-2947416D01*
X332028Y-2609392D01*
X335686Y-2607919D01*
X667562Y-2607716D01*
X672084Y-2609443D01*
X672084Y-2947416D01*
X667562Y-2949143D01*
X336600Y-2949143D01*
X332028Y-2947416D01*
X258927Y-2947416D01*
X258927Y-3016402D01*
X263398Y-3020872D01*
X740410Y-3020872D01*
X743864Y-3017469D01*
X743864Y-2539390D01*
X740410Y-2535936D01*
G37*
G36*
X1777390Y-2535936D02*
G01*
X1773936Y-2539390D01*
X1773936Y-2604262D01*
X1777390Y-2607716D01*
X1842211Y-2607716D01*
X1845665Y-2604262D01*
X1845665Y-2539390D01*
X1842211Y-2535936D01*
G37*
G36*
X400100Y-2673705D02*
G01*
X396646Y-2677109D01*
X396646Y-2879699D01*
X400100Y-2883154D01*
X602640Y-2883154D01*
X606094Y-2879699D01*
X606094Y-2677109D01*
X602640Y-2673705D01*
G37*
G36*
X882142Y-2811424D02*
G01*
X878687Y-2814878D01*
X878687Y-2876854D01*
X875284Y-2880309D01*
X813308Y-2880309D01*
X809853Y-2883712D01*
X809853Y-3017469D01*
X813308Y-3020872D01*
X878128Y-3020872D01*
X881583Y-3017469D01*
X881583Y-2955442D01*
X885037Y-2952038D01*
X944118Y-2952038D01*
X947572Y-2955442D01*
X947572Y-3017469D01*
X951026Y-3020872D01*
X1153566Y-3020872D01*
X1157020Y-3017469D01*
X1157020Y-2952597D01*
X1153566Y-2949143D01*
X1091590Y-2949143D01*
X1088136Y-2945688D01*
X1088136Y-2886608D01*
X1091590Y-2883154D01*
X1153566Y-2883154D01*
X1157020Y-2879699D01*
X1157020Y-2814878D01*
X1153566Y-2811424D01*
G37*
G36*
X2971800Y-1446682D02*
G01*
X2971800Y-1448917D01*
X2967431Y-1449679D01*
X2959557Y-1450594D01*
X2937662Y-1452118D01*
X2923997Y-1455064D01*
X2909011Y-1456791D01*
X2897987Y-1459738D01*
X2886913Y-1461414D01*
X2874568Y-1465173D01*
X2871114Y-1465224D01*
X2862427Y-1468374D01*
X2853080Y-1470660D01*
X2848203Y-1473149D01*
X2837942Y-1475790D01*
X2829255Y-1479245D01*
X2819806Y-1483664D01*
X2817672Y-1483664D01*
X2812288Y-1486154D01*
X2809951Y-1485290D01*
X2808884Y-1480972D01*
X2805176Y-1475232D01*
X2801112Y-1474266D01*
X2794203Y-1475181D01*
X2788005Y-1479448D01*
X2777591Y-1494078D01*
X2777540Y-1495806D01*
X2774035Y-1500174D01*
X2770378Y-1507185D01*
X2765755Y-1514906D01*
X2756408Y-1531823D01*
X2746908Y-1549552D01*
X2729230Y-1584248D01*
X2727756Y-1586534D01*
X2724556Y-1593494D01*
X2722981Y-1595780D01*
X2719832Y-1602740D01*
X2718257Y-1605026D01*
X2715920Y-1610410D01*
X2705658Y-1631238D01*
X2705658Y-1632966D01*
X2702763Y-1636623D01*
X2700731Y-1642770D01*
X2697988Y-1646631D01*
X2696006Y-1652778D01*
X2693822Y-1655267D01*
X2691231Y-1662836D01*
X2688386Y-1666748D01*
X2687320Y-1671320D01*
X2683764Y-1677466D01*
X2681071Y-1685543D01*
X2679750Y-1686356D01*
X2677007Y-1694383D01*
X2674264Y-1698294D01*
X2672334Y-1705152D01*
X2669438Y-1708759D01*
X2668422Y-1713687D01*
X2664815Y-1719834D01*
X2662783Y-1725980D01*
X2659075Y-1732788D01*
X2659075Y-1735226D01*
X2654350Y-1744472D01*
X2654300Y-1746808D01*
X2649626Y-1756003D01*
X2649626Y-1758391D01*
X2646222Y-1764538D01*
X2643276Y-1772920D01*
X2641193Y-1776069D01*
X2639364Y-1783181D01*
X2635402Y-1789938D01*
X2635402Y-1792325D01*
X2631541Y-1799945D01*
X2629712Y-1806905D01*
X2626918Y-1811528D01*
X2625039Y-1819249D01*
X2622854Y-1822500D01*
X2621989Y-1825396D01*
X2857957Y-1825396D01*
X2860344Y-1813814D01*
X2862986Y-1803044D01*
X2868980Y-1784553D01*
X2875635Y-1768348D01*
X2878328Y-1756816D01*
X2880868Y-1752142D01*
X2882696Y-1742236D01*
X2885490Y-1736801D01*
X2887370Y-1727200D01*
X2890316Y-1720596D01*
X2892145Y-1710740D01*
X2894990Y-1703679D01*
X2896870Y-1692859D01*
X2900730Y-1681835D01*
X2900730Y-1677720D01*
X2904591Y-1666646D01*
X2906369Y-1654352D01*
X2909265Y-1645818D01*
X2911094Y-1633118D01*
X2914040Y-1624126D01*
X2915869Y-1608988D01*
X2918764Y-1599641D01*
X2919831Y-1592681D01*
X2925267Y-1581759D01*
X2934309Y-1572514D01*
X2942183Y-1568399D01*
X2946908Y-1566926D01*
X2958744Y-1567535D01*
X2969818Y-1573174D01*
X2976168Y-1579118D01*
X2980283Y-1584248D01*
X2983026Y-1589633D01*
X2985008Y-1591919D01*
X2986989Y-1597964D01*
X2989884Y-1602740D01*
X2992170Y-1612747D01*
X2994609Y-1619097D01*
X2997098Y-1642770D01*
X2998724Y-1653895D01*
X2993898Y-1681835D01*
X2992526Y-1684375D01*
X2991510Y-1689912D01*
X2993186Y-1694586D01*
X2999028Y-1697482D01*
X3002991Y-1700022D01*
X3009747Y-1701800D01*
X3017062Y-1705559D01*
X3019552Y-1705559D01*
X3029051Y-1710182D01*
X3032201Y-1710232D01*
X3041700Y-1714804D01*
X3044850Y-1714855D01*
X3054299Y-1719427D01*
X3060039Y-1719427D01*
X3061614Y-1717548D01*
X3062833Y-1713687D01*
X3065576Y-1709826D01*
X3067558Y-1703679D01*
X3071114Y-1697482D01*
X3072180Y-1693011D01*
X3075228Y-1689201D01*
X3075228Y-1687474D01*
X3086506Y-1664360D01*
X3092399Y-1653590D01*
X3105658Y-1628139D01*
X3112160Y-1619656D01*
X3120136Y-1612747D01*
X3124758Y-1609344D01*
X3136798Y-1606194D01*
X3141319Y-1606194D01*
X3153511Y-1609242D01*
X3158337Y-1612747D01*
X3165297Y-1619656D01*
X3170936Y-1630781D01*
X3170885Y-1648409D01*
X3166922Y-1659737D01*
X3165195Y-1672488D01*
X3162300Y-1681327D01*
X3160318Y-1692859D01*
X3157372Y-1700225D01*
X3155645Y-1711350D01*
X3153460Y-1715516D01*
X3150260Y-1728774D01*
X3148025Y-1732991D01*
X3146196Y-1742948D01*
X3143199Y-1749552D01*
X3141421Y-1759153D01*
X3138576Y-1765300D01*
X3136696Y-1775206D01*
X3133852Y-1780692D01*
X3131921Y-1789938D01*
X3129127Y-1795322D01*
X3127197Y-1804568D01*
X3124403Y-1810004D01*
X3122422Y-1819249D01*
X3119678Y-1824634D01*
X3117697Y-1833880D01*
X3114903Y-1839264D01*
X3112973Y-1848510D01*
X3110179Y-1853895D01*
X3108248Y-1863140D01*
X3105505Y-1868525D01*
X3103575Y-1876145D01*
X3100781Y-1880107D01*
X3098698Y-1885238D01*
X3096920Y-1887016D01*
X3093262Y-1892858D01*
X3089859Y-1896770D01*
X3082340Y-1903984D01*
X3077108Y-1908098D01*
X3072485Y-1910029D01*
X3069336Y-1912670D01*
X3057956Y-1915160D01*
X3050844Y-1915160D01*
X3042615Y-1913432D01*
X3035147Y-1906625D01*
X3033471Y-1902409D01*
X3031032Y-1891944D01*
X3031032Y-1884730D01*
X3033522Y-1868525D01*
X3037332Y-1856232D01*
X3038957Y-1843887D01*
X3041954Y-1833880D01*
X3043732Y-1820773D01*
X3046780Y-1810766D01*
X3048406Y-1794967D01*
X3035350Y-1788922D01*
X3029966Y-1787855D01*
X3022904Y-1784146D01*
X3020263Y-1784146D01*
X3012490Y-1780438D01*
X3005378Y-1778609D01*
X3000603Y-1775815D01*
X2993491Y-1774037D01*
X2985719Y-1770278D01*
X2983179Y-1770278D01*
X2974695Y-1766163D01*
X2968396Y-1766062D01*
X2963367Y-1773021D01*
X2961436Y-1778660D01*
X2959252Y-1780438D01*
X2956509Y-1787652D01*
X2953816Y-1790700D01*
X2951988Y-1796389D01*
X2949194Y-1799945D01*
X2947009Y-1805330D01*
X2944266Y-1808937D01*
X2942386Y-1814575D01*
X2940304Y-1816912D01*
X2937002Y-1823821D01*
X2932684Y-1830832D01*
X2925826Y-1839823D01*
X2916631Y-1848510D01*
X2910586Y-1852828D01*
X2904286Y-1856790D01*
X2893212Y-1861362D01*
X2886913Y-1862886D01*
X2874213Y-1862277D01*
X2867152Y-1857502D01*
X2863697Y-1853895D01*
X2858617Y-1843328D01*
X2857957Y-1825396D01*
X2621989Y-1825396D01*
X2620213Y-1831390D01*
X2616454Y-1839264D01*
X2616454Y-1842211D01*
X2612542Y-1850237D01*
X2610967Y-1857095D01*
X2606954Y-1865426D01*
X2606954Y-1868525D01*
X2603195Y-1876399D01*
X2601417Y-1884425D01*
X2598267Y-1891182D01*
X2596489Y-1899361D01*
X2593746Y-1904746D01*
X2591765Y-1913991D01*
X2589580Y-1918157D01*
X2588187Y-1923999D01*
X3152241Y-1923999D01*
X3152241Y-1907844D01*
X3155543Y-1901647D01*
X3157575Y-1895652D01*
X3161334Y-1890268D01*
X3161334Y-1888286D01*
X3164992Y-1883918D01*
X3167126Y-1878533D01*
X3169412Y-1875891D01*
X3173222Y-1868525D01*
X3184652Y-1848510D01*
X3191459Y-1836166D01*
X3209239Y-1805076D01*
X3253740Y-1724456D01*
X3255264Y-1722120D01*
X3269894Y-1694383D01*
X3279394Y-1677466D01*
X3281375Y-1673606D01*
X3291382Y-1660499D01*
X3300679Y-1651507D01*
X3305454Y-1649120D01*
X3309924Y-1645462D01*
X3312210Y-1645462D01*
X3318865Y-1642211D01*
X3324402Y-1641043D01*
X3334867Y-1640839D01*
X3339744Y-1641805D01*
X3349142Y-1650898D01*
X3355594Y-1660093D01*
X3355594Y-1661566D01*
X3359454Y-1666036D01*
X3364128Y-1678533D01*
X3365957Y-1692859D01*
X3369360Y-1710588D01*
X3369310Y-1775307D01*
X3365906Y-1799285D01*
X3364179Y-1820011D01*
X3361182Y-1834642D01*
X3359505Y-1851507D01*
X3356457Y-1862378D01*
X3354730Y-1876247D01*
X3351682Y-1887016D01*
X3350006Y-1897786D01*
X3346958Y-1907082D01*
X3345179Y-1918614D01*
X3342233Y-1925218D01*
X3341873Y-1927098D01*
X3407511Y-1927098D01*
X3408476Y-1889353D01*
X3410915Y-1877009D01*
X3413353Y-1859432D01*
X3416300Y-1852168D01*
X3418078Y-1842414D01*
X3420922Y-1836928D01*
X3422700Y-1828749D01*
X3425698Y-1822297D01*
X3427577Y-1815388D01*
X3431387Y-1807768D01*
X3431387Y-1805482D01*
X3435146Y-1799183D01*
X3437128Y-1793036D01*
X3439007Y-1790700D01*
X3445967Y-1776831D01*
X3456736Y-1760677D01*
X3462172Y-1752955D01*
X3474415Y-1739950D01*
X3481882Y-1733702D01*
X3493363Y-1725625D01*
X3498900Y-1723237D01*
X3506825Y-1719427D01*
X3509416Y-1719427D01*
X3520236Y-1716125D01*
X3534460Y-1714957D01*
X3556558Y-1715465D01*
X3571900Y-1720697D01*
X3574745Y-1723136D01*
X3580079Y-1725777D01*
X3590696Y-1736242D01*
X3597148Y-1747723D01*
X3598265Y-1752193D01*
X3601516Y-1759153D01*
X3601516Y-1778406D01*
X3596284Y-1788718D01*
X3590493Y-1793798D01*
X3581450Y-1796796D01*
X3570173Y-1793290D01*
X3562858Y-1787906D01*
X3551682Y-1777238D01*
X3545941Y-1774901D01*
X3533495Y-1774901D01*
X3522624Y-1780539D01*
X3511550Y-1791665D01*
X3504184Y-1802282D01*
X3496919Y-1816201D01*
X3496919Y-1817370D01*
X3493008Y-1823059D01*
X3493008Y-1825396D01*
X3488232Y-1834642D01*
X3488232Y-1837893D01*
X3484270Y-1845208D01*
X3482543Y-1853133D01*
X3479749Y-1858518D01*
X3477818Y-1867763D01*
X3474923Y-1874012D01*
X3472332Y-1888591D01*
X3469690Y-1898599D01*
X3469690Y-1940204D01*
X3474059Y-1951989D01*
X3474059Y-1954580D01*
X3479850Y-1964842D01*
X3485438Y-1971598D01*
X3495954Y-1978304D01*
X3498545Y-1978304D01*
X3507587Y-1981504D01*
X3531362Y-1982724D01*
X3534664Y-1984451D01*
X3540302Y-1993290D01*
X3541318Y-2002942D01*
X3539591Y-2012543D01*
X3534511Y-2019554D01*
X3525265Y-2027732D01*
X3515512Y-2032965D01*
X3505250Y-2037232D01*
X3492601Y-2037283D01*
X3480765Y-2034489D01*
X3470503Y-2032406D01*
X3460242Y-2028342D01*
X3449777Y-2022602D01*
X3442055Y-2017674D01*
X3431794Y-2007107D01*
X3427425Y-2001062D01*
X3424377Y-1995678D01*
X3417315Y-1980996D01*
X3416249Y-1975866D01*
X3413302Y-1969465D01*
X3411575Y-1955596D01*
X3409238Y-1947875D01*
X3407511Y-1927098D01*
X3341873Y-1927098D01*
X3340455Y-1934768D01*
X3337509Y-1941728D01*
X3335731Y-1948535D01*
X3330803Y-1957120D01*
X3326739Y-1962200D01*
X3316478Y-1972310D01*
X3308604Y-1977389D01*
X3296259Y-1982165D01*
X3285693Y-1982114D01*
X3276600Y-1977034D01*
X3271824Y-1969719D01*
X3270097Y-1961845D01*
X3271113Y-1951126D01*
X3274110Y-1944522D01*
X3275990Y-1935581D01*
X3279038Y-1929028D01*
X3280562Y-1921205D01*
X3283610Y-1914448D01*
X3285490Y-1905507D01*
X3288385Y-1899970D01*
X3290722Y-1890877D01*
X3291789Y-1887524D01*
X3286963Y-1885086D01*
X3282543Y-1885086D01*
X3265170Y-1882139D01*
X3239922Y-1880362D01*
X3229914Y-1879193D01*
X3224682Y-1885492D01*
X3220516Y-1893163D01*
X3209086Y-1909876D01*
X3199231Y-1921205D01*
X3188563Y-1930704D01*
X3181451Y-1933752D01*
X3178657Y-1936191D01*
X3166160Y-1936902D01*
X3162401Y-1935988D01*
X3156661Y-1931162D01*
X3152241Y-1923999D01*
X2588187Y-1923999D01*
X2586431Y-1931416D01*
X2584196Y-1935632D01*
X2582418Y-1945132D01*
X2579420Y-1951786D01*
X2577642Y-1962505D01*
X2574747Y-1968906D01*
X2572816Y-1980082D01*
X2569972Y-1986432D01*
X2568092Y-1998675D01*
X2565247Y-2005736D01*
X2563368Y-2017979D01*
X2560574Y-2024938D01*
X2558694Y-2038045D01*
X2555748Y-2046579D01*
X2553970Y-2059584D01*
X2550922Y-2069642D01*
X2549245Y-2082698D01*
X2546197Y-2093518D01*
X2544521Y-2108911D01*
X2541524Y-2120493D01*
X2539746Y-2136648D01*
X2536748Y-2148281D01*
X2535021Y-2166721D01*
X2531973Y-2181352D01*
X2530246Y-2201367D01*
X2528011Y-2212136D01*
X2524709Y-2251456D01*
X2523896Y-2254910D01*
X2521661Y-2254910D01*
X2521661Y-2297277D01*
X2591714Y-2297277D01*
X2592832Y-2222195D01*
X2594356Y-2194052D01*
X2595829Y-2183638D01*
X2597505Y-2154377D01*
X2599131Y-2135886D01*
X2601315Y-2123541D01*
X2603093Y-2095804D01*
X2606141Y-2081174D01*
X2607818Y-2061159D01*
X2610815Y-2048814D01*
X2612593Y-2031847D01*
X2615590Y-2020316D01*
X2617266Y-2006447D01*
X2620314Y-1995678D01*
X2621330Y-1988413D01*
X2623921Y-1986178D01*
X2632354Y-1983790D01*
X2656332Y-1982114D01*
X2669743Y-1979879D01*
X2692654Y-1978253D01*
X2770022Y-1978253D01*
X2788208Y-1979218D01*
X2811119Y-1982114D01*
X2833979Y-1983841D01*
X2849067Y-1986737D01*
X2866390Y-1988413D01*
X2879547Y-1991410D01*
X2894025Y-1992985D01*
X2905048Y-1995982D01*
X2918866Y-1997608D01*
X2928772Y-2000605D01*
X2942996Y-2002383D01*
X2948330Y-2004517D01*
X2966008Y-2007565D01*
X2971444Y-2009800D01*
X2984144Y-2011476D01*
X2992272Y-2014524D01*
X3003804Y-2016252D01*
X3011322Y-2019147D01*
X3022752Y-2020874D01*
X3030270Y-2023770D01*
X3041700Y-2025497D01*
X3049168Y-2028393D01*
X3059836Y-2030018D01*
X3071164Y-2033778D01*
X3074416Y-2033778D01*
X3088284Y-2038248D01*
X3095802Y-2039264D01*
X3102508Y-2042160D01*
X3113532Y-2043988D01*
X3117850Y-2046173D01*
X3132683Y-2049068D01*
X3137255Y-2051304D01*
X3140845Y-2051913D01*
X3583432Y-2051913D01*
X3583432Y-2037892D01*
X3592525Y-2018792D01*
X3594811Y-2014931D01*
X3599434Y-2005482D01*
X3601059Y-2004517D01*
X3602939Y-1998725D01*
X3605631Y-1995678D01*
X3608374Y-1988464D01*
X3610559Y-1986686D01*
X3612438Y-1980996D01*
X3615385Y-1976932D01*
X3615385Y-1975612D01*
X3625646Y-1954834D01*
X3625646Y-1952498D01*
X3630371Y-1943252D01*
X3630422Y-1940204D01*
X3634486Y-1931720D01*
X3636010Y-1923643D01*
X3638956Y-1917090D01*
X3640785Y-1907082D01*
X3643782Y-1897481D01*
X3645357Y-1882393D01*
X3647795Y-1871116D01*
X3649319Y-1849272D01*
X3650945Y-1812289D01*
X3652469Y-1805939D01*
X3654907Y-1785569D01*
X3657396Y-1780895D01*
X3659784Y-1773021D01*
X3663543Y-1768652D01*
X3663543Y-1767332D01*
X3671062Y-1762353D01*
X3675024Y-1761083D01*
X3684524Y-1761591D01*
X3691974Y-1765300D01*
X4478934Y-1765300D01*
X4483912Y-1757883D01*
X4490770Y-1752193D01*
X4495596Y-1748891D01*
X4511294Y-1740306D01*
X4518406Y-1736953D01*
X4522165Y-1734108D01*
X4528667Y-1732381D01*
X4532630Y-1729638D01*
X4539335Y-1727860D01*
X4544517Y-1724914D01*
X4555998Y-1722526D01*
X4558944Y-1721002D01*
X4567377Y-1719529D01*
X4588764Y-1719986D01*
X4598924Y-1724355D01*
X4604207Y-1729079D01*
X4610404Y-1737918D01*
X4616043Y-1752092D01*
X4616907Y-1769922D01*
X4615129Y-1781911D01*
X4612182Y-1787652D01*
X4610354Y-1795068D01*
X4606340Y-1802587D01*
X4606848Y-1806905D01*
X4613960Y-1810308D01*
X4621072Y-1812950D01*
X4625695Y-1816150D01*
X4637633Y-1827834D01*
X4640783Y-1833880D01*
X4643374Y-1836928D01*
X4645304Y-1843125D01*
X4647844Y-1846986D01*
X4651349Y-1861616D01*
X4653026Y-1867763D01*
X4653026Y-1877771D01*
X4648047Y-1893163D01*
X4645152Y-1896364D01*
X4645152Y-1897989D01*
X4635906Y-1909368D01*
X4631994Y-1913229D01*
X4620006Y-1922475D01*
X4608423Y-1929688D01*
X4584039Y-1941322D01*
X4581398Y-1941322D01*
X4573879Y-1945284D01*
X4562297Y-1947418D01*
X4555032Y-1949805D01*
X4536541Y-1949957D01*
X4532376Y-1948383D01*
X4529074Y-1943862D01*
X4527346Y-1939442D01*
X4525010Y-1926589D01*
X4522063Y-1919224D01*
X4520234Y-1909419D01*
X4517999Y-1905203D01*
X4514850Y-1891944D01*
X4512614Y-1887728D01*
X4510786Y-1877822D01*
X4508550Y-1873605D01*
X4505350Y-1860346D01*
X4503166Y-1856232D01*
X4501235Y-1846986D01*
X4498441Y-1840788D01*
X4496511Y-1831543D01*
X4493666Y-1826107D01*
X4491990Y-1817217D01*
X4488891Y-1810461D01*
X4487011Y-1801520D01*
X4484827Y-1797304D01*
X4482388Y-1786889D01*
X4479036Y-1779168D01*
X4478934Y-1765300D01*
X3691974Y-1765300D01*
X3695700Y-1767128D01*
X3705606Y-1776831D01*
X3710787Y-1786077D01*
X3714242Y-1794560D01*
X3715867Y-1802282D01*
X3715582Y-1817674D01*
X4284675Y-1817674D01*
X4289856Y-1808480D01*
X4296765Y-1802892D01*
X4305198Y-1801926D01*
X4310938Y-1803247D01*
X4316679Y-1807667D01*
X4321098Y-1813052D01*
X4326737Y-1824634D01*
X4327753Y-1830324D01*
X4330750Y-1836928D01*
X4332630Y-1847748D01*
X4335424Y-1854707D01*
X4337304Y-1866950D01*
X4340148Y-1873910D01*
X4341926Y-1885086D01*
X4344873Y-1892401D01*
X4346854Y-1903984D01*
X4349750Y-1911248D01*
X4351426Y-1921713D01*
X4354372Y-1928622D01*
X4356303Y-1937867D01*
X4359046Y-1943252D01*
X4360976Y-1950974D01*
X4363821Y-1955596D01*
X4365853Y-1961743D01*
X4370730Y-1967941D01*
X4372051Y-1968500D01*
X4377283Y-1972970D01*
X4389221Y-1975510D01*
X4400550Y-1973529D01*
X4406646Y-1968144D01*
X4411268Y-1959203D01*
X4412234Y-1954072D01*
X4413605Y-1932482D01*
X4412183Y-1906270D01*
X4410506Y-1890166D01*
X4408322Y-1880870D01*
X4406595Y-1863140D01*
X4403598Y-1851558D01*
X4401870Y-1840890D01*
X4398822Y-1833880D01*
X4397146Y-1824329D01*
X4393996Y-1815490D01*
X4393133Y-1803044D01*
X4394657Y-1796084D01*
X4398924Y-1786077D01*
X4405325Y-1780692D01*
X4408627Y-1779676D01*
X4414316Y-1779524D01*
X4424273Y-1784553D01*
X4434586Y-1795678D01*
X4440529Y-1806905D01*
X4444593Y-1816049D01*
X4446066Y-1826158D01*
X4449165Y-1834896D01*
X4450994Y-1846529D01*
X4453890Y-1854657D01*
X4455718Y-1870862D01*
X4458716Y-1881632D01*
X4461154Y-1904847D01*
X4462881Y-1910130D01*
X4463694Y-1945589D01*
X4460900Y-1955596D01*
X4458157Y-1967941D01*
X4455668Y-1973580D01*
X4453991Y-1980844D01*
X4451146Y-1984857D01*
X4449368Y-1989937D01*
X4440428Y-2001062D01*
X4429150Y-2009698D01*
X4421276Y-2012086D01*
X4414164Y-2014728D01*
X4389678Y-2014626D01*
X4380992Y-2012188D01*
X4369917Y-2009800D01*
X4366260Y-2007514D01*
X4360468Y-2005431D01*
X4351782Y-2000250D01*
X4347819Y-1997202D01*
X4334357Y-1984095D01*
X4327245Y-1973325D01*
X4324553Y-1967941D01*
X4323029Y-1965604D01*
X4318812Y-1955596D01*
X4316069Y-1945538D01*
X4314291Y-1942236D01*
X4311091Y-1928926D01*
X4308856Y-1924710D01*
X4307027Y-1914753D01*
X4304131Y-1908606D01*
X4302302Y-1898650D01*
X4299508Y-1893163D01*
X4297527Y-1883156D01*
X4294632Y-1876907D01*
X4292752Y-1866239D01*
X4289958Y-1859280D01*
X4288129Y-1847900D01*
X4284776Y-1835404D01*
X4284675Y-1817674D01*
X3715582Y-1817674D01*
X3715004Y-1846173D01*
X3711854Y-1862378D01*
X3710127Y-1881835D01*
X3706977Y-1892401D01*
X3707028Y-1899361D01*
X3708603Y-1901647D01*
X3710381Y-1898650D01*
X3731869Y-1877110D01*
X3762806Y-1850847D01*
X3774846Y-1841246D01*
X3781399Y-1836928D01*
X3788714Y-1832813D01*
X3800551Y-1827072D01*
X3812184Y-1826361D01*
X3818382Y-1832254D01*
X3819906Y-1837740D01*
X3819906Y-1845614D01*
X3818432Y-1853133D01*
X3812794Y-1864664D01*
X3805326Y-1875942D01*
X3795115Y-1889353D01*
X3787800Y-1897024D01*
X3780231Y-1906270D01*
X3765042Y-1922475D01*
X3748735Y-1939036D01*
X3749700Y-1943455D01*
X3753561Y-1947011D01*
X3753612Y-1948688D01*
X3758336Y-1954733D01*
X3758336Y-1956358D01*
X3763010Y-1964842D01*
X3763060Y-1967331D01*
X3766769Y-1974088D01*
X3768619Y-1981809D01*
X3952392Y-1981809D01*
X3953306Y-1940966D01*
X3956405Y-1927098D01*
X3958132Y-1912772D01*
X3960622Y-1906778D01*
X3963466Y-1896262D01*
X3967022Y-1887778D01*
X3972712Y-1876247D01*
X3977538Y-1869186D01*
X3982212Y-1863140D01*
X3992372Y-1853488D01*
X3994200Y-1853488D01*
X3997096Y-1850389D01*
X4004259Y-1847291D01*
X4006697Y-1845208D01*
X4016146Y-1842566D01*
X4018026Y-1841093D01*
X4025646Y-1839722D01*
X4041800Y-1840230D01*
X4047744Y-1843278D01*
X4054043Y-1845208D01*
X4057243Y-1847951D01*
X4060951Y-1849831D01*
X4068775Y-1856993D01*
X4079392Y-1869287D01*
X4079643Y-1870049D01*
X4132630Y-1870049D01*
X4132681Y-1852371D01*
X4134104Y-1846173D01*
X4138523Y-1835657D01*
X4146042Y-1828038D01*
X4151172Y-1825853D01*
X4154373Y-1825752D01*
X4159554Y-1827225D01*
X4164634Y-1831289D01*
X4168952Y-1836928D01*
X4171391Y-1842363D01*
X4174388Y-1847799D01*
X4176115Y-1855419D01*
X4179062Y-1862378D01*
X4180992Y-1877009D01*
X4183786Y-1883968D01*
X4185665Y-1896262D01*
X4188663Y-1908606D01*
X4191101Y-1937715D01*
X4191762Y-1938731D01*
X4193387Y-1954072D01*
X4195114Y-1996439D01*
X4196486Y-2008784D01*
X4199128Y-2026462D01*
X4200499Y-2029002D01*
X4210761Y-2031695D01*
X4225442Y-2030831D01*
X4245965Y-2028393D01*
X4256227Y-2025396D01*
X4264914Y-2024380D01*
X4278731Y-2019960D01*
X4294124Y-2018944D01*
X4305503Y-2020722D01*
X4312716Y-2025446D01*
X4316628Y-2030475D01*
X4316628Y-2035302D01*
X4310837Y-2045512D01*
X4301439Y-2052269D01*
X4298696Y-2052269D01*
X4291431Y-2056079D01*
X4281576Y-2057806D01*
X4275785Y-2060651D01*
X4264914Y-2062530D01*
X4257446Y-2065375D01*
X4246727Y-2067001D01*
X4237278Y-2069947D01*
X4220159Y-2072386D01*
X4216247Y-2073859D01*
X4205681Y-2075383D01*
X4178655Y-2077059D01*
X4165650Y-2075332D01*
X4162094Y-2073706D01*
X4158030Y-2065782D01*
X4157116Y-2061159D01*
X4154779Y-2039569D01*
X4152493Y-2027224D01*
X4150766Y-2001062D01*
X4147769Y-1984857D01*
X4145940Y-1964080D01*
X4142994Y-1950974D01*
X4141215Y-1932482D01*
X4138269Y-1919376D01*
X4136440Y-1897786D01*
X4134205Y-1887270D01*
X4132630Y-1870049D01*
X4079643Y-1870049D01*
X4084472Y-1884730D01*
X4084472Y-1893163D01*
X4079748Y-1901189D01*
X4076192Y-1903577D01*
X4068114Y-1903577D01*
X4056126Y-1898192D01*
X4055059Y-1896516D01*
X4045762Y-1891995D01*
X4043019Y-1890471D01*
X4028795Y-1890522D01*
X4018991Y-1895856D01*
X4011117Y-1903577D01*
X4005326Y-1912061D01*
X4003243Y-1918614D01*
X4000855Y-1923237D01*
X3995877Y-1949450D01*
X3996740Y-1975612D01*
X3998366Y-1980996D01*
X4000906Y-1998725D01*
X4003852Y-2005685D01*
X4005529Y-2012594D01*
X4015181Y-2031847D01*
X4019296Y-2038604D01*
X4028897Y-2049576D01*
X4039057Y-2056384D01*
X4045356Y-2057806D01*
X4053789Y-2059178D01*
X4072026Y-2056079D01*
X4078071Y-2053082D01*
X4093260Y-2050694D01*
X4102658Y-2052472D01*
X4107434Y-2059381D01*
X4109161Y-2067255D01*
X4108246Y-2078126D01*
X4102658Y-2089099D01*
X4092905Y-2098497D01*
X4091686Y-2098497D01*
X4087215Y-2102154D01*
X4081068Y-2104136D01*
X4076192Y-2106879D01*
X4063542Y-2109317D01*
X4054856Y-2111654D01*
X4032758Y-2111654D01*
X4024071Y-2109216D01*
X4015384Y-2107133D01*
X4005122Y-2101900D01*
X3995623Y-2095906D01*
X3982618Y-2083054D01*
X3979468Y-2077059D01*
X3977843Y-2076043D01*
X3971645Y-2065020D01*
X3967429Y-2056536D01*
X3965092Y-2048916D01*
X3962958Y-2045766D01*
X3961180Y-2035911D01*
X3958285Y-2028748D01*
X3956456Y-2014169D01*
X3954119Y-2003348D01*
X3952392Y-1981809D01*
X3768619Y-1981809D01*
X3768801Y-1982571D01*
X3771544Y-1987194D01*
X3773576Y-1995678D01*
X3776472Y-2001113D01*
X3778148Y-2009902D01*
X3781094Y-2016455D01*
X3783025Y-2027224D01*
X3785920Y-2034438D01*
X3788359Y-2052675D01*
X3789934Y-2058060D01*
X3789934Y-2065172D01*
X3785920Y-2084222D01*
X3782009Y-2090013D01*
X3782009Y-2091283D01*
X3775201Y-2097786D01*
X3765804Y-2102307D01*
X3755034Y-2102358D01*
X3741572Y-2096719D01*
X3731463Y-2086864D01*
X3726027Y-2075332D01*
X3724249Y-2059584D01*
X3721303Y-2048052D01*
X3719525Y-2032812D01*
X3716629Y-2024125D01*
X3714699Y-2009546D01*
X3711803Y-2000707D01*
X3710076Y-1988312D01*
X3707079Y-1979168D01*
X3705301Y-1966569D01*
X3703472Y-1963724D01*
X3699103Y-1961946D01*
X3686048Y-1963826D01*
X3683254Y-1964588D01*
X3678478Y-1974850D01*
X3676954Y-1981555D01*
X3674008Y-1987194D01*
X3672078Y-1994103D01*
X3669233Y-1997964D01*
X3667353Y-2004872D01*
X3664559Y-2008784D01*
X3662679Y-2014423D01*
X3660292Y-2016353D01*
X3657193Y-2021839D01*
X3648151Y-2033422D01*
X3641039Y-2041093D01*
X3630015Y-2051608D01*
X3625646Y-2053843D01*
X3625646Y-2055215D01*
X3619754Y-2057907D01*
X3615690Y-2060651D01*
X3602888Y-2063851D01*
X3599738Y-2063851D01*
X3589375Y-2060702D01*
X3583432Y-2051913D01*
X3140845Y-2051913D01*
X3148025Y-2053132D01*
X3155492Y-2056028D01*
X3165652Y-2057907D01*
X3169920Y-2059990D01*
X3183534Y-2063089D01*
X3187852Y-2065274D01*
X3198063Y-2067052D01*
X3204362Y-2069896D01*
X3214166Y-2071624D01*
X3220923Y-2074519D01*
X3231134Y-2076297D01*
X3235452Y-2078482D01*
X3249066Y-2081580D01*
X3253384Y-2083765D01*
X3263493Y-2085543D01*
X3269183Y-2088388D01*
X3279292Y-2090166D01*
X3284982Y-2093010D01*
X3295091Y-2094788D01*
X3300780Y-2097582D01*
X3309772Y-2099208D01*
X3317290Y-2102307D01*
X3328009Y-2104694D01*
X3332327Y-2106828D01*
X3341420Y-2108504D01*
X3348532Y-2111552D01*
X3358337Y-2113280D01*
X3365449Y-2116175D01*
X3376168Y-2118563D01*
X3380486Y-2120646D01*
X3391509Y-2122627D01*
X3397148Y-2125370D01*
X3407308Y-2127148D01*
X3414420Y-2129993D01*
X3423869Y-2131822D01*
X3430981Y-2134666D01*
X3441700Y-2137054D01*
X3446018Y-2139188D01*
X3458870Y-2141575D01*
X3463391Y-2143810D01*
X3471265Y-2144928D01*
X3485134Y-2149348D01*
X3488385Y-2149348D01*
X3500018Y-2153259D01*
X3513328Y-2155393D01*
X3517849Y-2157679D01*
X3530498Y-2159508D01*
X3537610Y-2162403D01*
X3547872Y-2164080D01*
X3556609Y-2166975D01*
X3569665Y-2168702D01*
X3578809Y-2171547D01*
X3591306Y-2173427D01*
X3596843Y-2175662D01*
X3614470Y-2178558D01*
X3621430Y-2180844D01*
X3637584Y-2182571D01*
X3646932Y-2185517D01*
X3659987Y-2187194D01*
X3671062Y-2190140D01*
X3687673Y-2191816D01*
X3699510Y-2194712D01*
X3716070Y-2196439D01*
X3728720Y-2199335D01*
X3749243Y-2201062D01*
X3763670Y-2204008D01*
X3783990Y-2205685D01*
X3802126Y-2208631D01*
X3828237Y-2210308D01*
X3847185Y-2213254D01*
X3882694Y-2214880D01*
X3891381Y-2215743D01*
X3909060Y-2217928D01*
X3964025Y-2219452D01*
X3998010Y-2221026D01*
X4058005Y-2222550D01*
X4088790Y-2221026D01*
X4135729Y-2217216D01*
X4144111Y-2214930D01*
X4161485Y-2213254D01*
X4173524Y-2210257D01*
X4185920Y-2208580D01*
X4192270Y-2206345D01*
X4210100Y-2203297D01*
X4214368Y-2201164D01*
X4225391Y-2199335D01*
X4232554Y-2196439D01*
X4242816Y-2194712D01*
X4249420Y-2191867D01*
X4258614Y-2190038D01*
X4264101Y-2187295D01*
X4273600Y-2185416D01*
X4279442Y-2182469D01*
X4287824Y-2180793D01*
X4292650Y-2177897D01*
X4301134Y-2176170D01*
X4308195Y-2172462D01*
X4311650Y-2172462D01*
X4318762Y-2168804D01*
X4324146Y-2167686D01*
X4333595Y-2163216D01*
X4335983Y-2163216D01*
X4345432Y-2158644D01*
X4347972Y-2158593D01*
X4355744Y-2154580D01*
X4363059Y-2152446D01*
X4364888Y-2150262D01*
X4369917Y-2149246D01*
X4390491Y-2139950D01*
X4399127Y-2135682D01*
X4404156Y-2134616D01*
X4406036Y-2132482D01*
X4414774Y-2129282D01*
X4418736Y-2126234D01*
X4420768Y-2126234D01*
X4432300Y-2120696D01*
X4434687Y-2119274D01*
X4441799Y-2116175D01*
X4444187Y-2114651D01*
X4467047Y-2103170D01*
X4488586Y-2091943D01*
X4490770Y-2090318D01*
X4496308Y-2088235D01*
X4499457Y-2085644D01*
X4504994Y-2083612D01*
X4508144Y-2080971D01*
X4515256Y-2077669D01*
X4523943Y-2072386D01*
X4530445Y-2069388D01*
X4531461Y-2067814D01*
X4539742Y-2063800D01*
X4548378Y-2058466D01*
X4553153Y-2056282D01*
X4557369Y-2053031D01*
X4562602Y-2050694D01*
X4567682Y-2047290D01*
X4597146Y-2029561D01*
X4602124Y-2026208D01*
X4615535Y-2018233D01*
X4631334Y-2007666D01*
X4638548Y-2003856D01*
X4640580Y-2001418D01*
X4642510Y-2001418D01*
X4646218Y-1997608D01*
X4648149Y-1997608D01*
X4659528Y-1989480D01*
X4672025Y-1981352D01*
X4674768Y-1979015D01*
X4680305Y-1975307D01*
X4685792Y-1972310D01*
X4688840Y-1969058D01*
X4690719Y-1969058D01*
X4693716Y-1965807D01*
X4699254Y-1962912D01*
X4706366Y-1957476D01*
X4710887Y-1954834D01*
X4715002Y-1951583D01*
X4720183Y-1948992D01*
X4720183Y-1947570D01*
X4724755Y-1945233D01*
X4726889Y-1943150D01*
X4733188Y-1939036D01*
X4751374Y-1925878D01*
X4761077Y-1918614D01*
X4769154Y-1913229D01*
X4780076Y-1904746D01*
X4790694Y-1897075D01*
X4803495Y-1886966D01*
X4807458Y-1884527D01*
X4811369Y-1881276D01*
X4853838Y-1848510D01*
X4888534Y-1820773D01*
X4902758Y-1808429D01*
X4906111Y-1806193D01*
X4927447Y-1788566D01*
X4931511Y-1784553D01*
X4950358Y-1769262D01*
X4954371Y-1765300D01*
X4969256Y-1752193D01*
X4973269Y-1748383D01*
X4992217Y-1732025D01*
X5001666Y-1723339D01*
X5002834Y-1723288D01*
X5006187Y-1716938D01*
X5003088Y-1712874D01*
X4789271Y-1712772D01*
X4778552Y-1711604D01*
X4776063Y-1707896D01*
X4777130Y-1702104D01*
X4781600Y-1695196D01*
X4782718Y-1691335D01*
X4784750Y-1688998D01*
X4790084Y-1678228D01*
X4793589Y-1672082D01*
X4796840Y-1665122D01*
X4798364Y-1662836D01*
X4803038Y-1653590D01*
X4804511Y-1651254D01*
X4811115Y-1638147D01*
X4812588Y-1635861D01*
X4816652Y-1627378D01*
X4818684Y-1625041D01*
X4820513Y-1619402D01*
X4823307Y-1615795D01*
X4825492Y-1610410D01*
X4828286Y-1606854D01*
X4830114Y-1601165D01*
X4832908Y-1598117D01*
X4834686Y-1592580D01*
X4838547Y-1587500D01*
X4839512Y-1583080D01*
X4840986Y-1582216D01*
X4850536Y-1563420D01*
X4876495Y-1514246D01*
X4876495Y-1508455D01*
X4874006Y-1505966D01*
X4868214Y-1506982D01*
X4863490Y-1509877D01*
X4857953Y-1512366D01*
X4853482Y-1516024D01*
X4851349Y-1516024D01*
X4846878Y-1519732D01*
X4841392Y-1522323D01*
X4831892Y-1527556D01*
X4825593Y-1530604D01*
X4820259Y-1534464D01*
X4815840Y-1535430D01*
X4814062Y-1537462D01*
X4796383Y-1546148D01*
X4793996Y-1547571D01*
X4786884Y-1550720D01*
X4780838Y-1553972D01*
X4762296Y-1563065D01*
X4760620Y-1563065D01*
X4758740Y-1565249D01*
X4750562Y-1567891D01*
X4746802Y-1570736D01*
X4745024Y-1570736D01*
X4722114Y-1581556D01*
X4720793Y-1581556D01*
X4716627Y-1584401D01*
X4710277Y-1586382D01*
X4703368Y-1589989D01*
X4701184Y-1589989D01*
X4692294Y-1594612D01*
X4689906Y-1594612D01*
X4683455Y-1598269D01*
X4674565Y-1600758D01*
X4672736Y-1602943D01*
X4665268Y-1604772D01*
X4660544Y-1607566D01*
X4654245Y-1609445D01*
X4649470Y-1612188D01*
X4642358Y-1614017D01*
X4634585Y-1617726D01*
X4631944Y-1617726D01*
X4624527Y-1621586D01*
X4617110Y-1623364D01*
X4612386Y-1626057D01*
X4606848Y-1627174D01*
X4596333Y-1631594D01*
X4593234Y-1631594D01*
X4586173Y-1635302D01*
X4577943Y-1637030D01*
X4572101Y-1639925D01*
X4563770Y-1641602D01*
X4557877Y-1644497D01*
X4549190Y-1646478D01*
X4543653Y-1649171D01*
X4534204Y-1651050D01*
X4527854Y-1653793D01*
X4518406Y-1655673D01*
X4512767Y-1658467D01*
X4502607Y-1660245D01*
X4495495Y-1663090D01*
X4485995Y-1664817D01*
X4478934Y-1667713D01*
X4468825Y-1669491D01*
X4461560Y-1672234D01*
X4450791Y-1674063D01*
X4443323Y-1676907D01*
X4431030Y-1678736D01*
X4422394Y-1681632D01*
X4409440Y-1683359D01*
X4400753Y-1686204D01*
X4388104Y-1687982D01*
X4378553Y-1690776D01*
X4363618Y-1692554D01*
X4352544Y-1695500D01*
X4336745Y-1697177D01*
X4324146Y-1700123D01*
X4305960Y-1701749D01*
X4296511Y-1703933D01*
X4291736Y-1704746D01*
X4269638Y-1706422D01*
X4252264Y-1709369D01*
X4220667Y-1710994D01*
X4202531Y-1713230D01*
X4161485Y-1715007D01*
X4055618Y-1714195D01*
X4038295Y-1711858D01*
X4028795Y-1710943D01*
X4001160Y-1709470D01*
X3984548Y-1706473D01*
X3960876Y-1704746D01*
X3949039Y-1701850D01*
X3932428Y-1700072D01*
X3920998Y-1697177D01*
X3905250Y-1695500D01*
X3896461Y-1692554D01*
X3883558Y-1690827D01*
X3874820Y-1687931D01*
X3861358Y-1686102D01*
X3854196Y-1683359D01*
X3846372Y-1682292D01*
X3832504Y-1677822D01*
X3830065Y-1677822D01*
X3818737Y-1674063D01*
X3808476Y-1672336D01*
X3801872Y-1669491D01*
X3792677Y-1667662D01*
X3785971Y-1664716D01*
X3778046Y-1663242D01*
X3772915Y-1660652D01*
X3762654Y-1657959D01*
X3754780Y-1654911D01*
X3723487Y-1643989D01*
X3719220Y-1641652D01*
X3710533Y-1638706D01*
X3700272Y-1634794D01*
X3694023Y-1631594D01*
X3691991Y-1631594D01*
X3683101Y-1626971D01*
X3680663Y-1626971D01*
X3674211Y-1623364D01*
X3667912Y-1621383D01*
X3663950Y-1618742D01*
X3657650Y-1616760D01*
X3653688Y-1614119D01*
X3647389Y-1612138D01*
X3644900Y-1610055D01*
X3637127Y-1607464D01*
X3633368Y-1604670D01*
X3631336Y-1604670D01*
X3620922Y-1599234D01*
X3618788Y-1599234D01*
X3613200Y-1595577D01*
X3609492Y-1594561D01*
X3590493Y-1585569D01*
X3585870Y-1584502D01*
X3581755Y-1581658D01*
X3577082Y-1580591D01*
X3570782Y-1577136D01*
X3564483Y-1575155D01*
X3558133Y-1571701D01*
X3553510Y-1570634D01*
X3549345Y-1567789D01*
X3544722Y-1566672D01*
X3536187Y-1562252D01*
X3532886Y-1562201D01*
X3524199Y-1557629D01*
X3521811Y-1557629D01*
X3516376Y-1554378D01*
X3506012Y-1550873D01*
X3495344Y-1546860D01*
X3491788Y-1544726D01*
X3484372Y-1542999D01*
X3476955Y-1539138D01*
X3473653Y-1539138D01*
X3464153Y-1534515D01*
X3462070Y-1534515D01*
X3451250Y-1529892D01*
X3448202Y-1529892D01*
X3441242Y-1526286D01*
X3432606Y-1524355D01*
X3427729Y-1521460D01*
X3419144Y-1519732D01*
X3413302Y-1516786D01*
X3404920Y-1515059D01*
X3399078Y-1512163D01*
X3390747Y-1510487D01*
X3385058Y-1507642D01*
X3374491Y-1505254D01*
X3370173Y-1503121D01*
X3360724Y-1501241D01*
X3355086Y-1498447D01*
X3344976Y-1496669D01*
X3340201Y-1494231D01*
X3327247Y-1491488D01*
X3322624Y-1489151D01*
X3313023Y-1487627D01*
X3300679Y-1483817D01*
X3275634Y-1477822D01*
X3252724Y-1472895D01*
X3246018Y-1470660D01*
X3231997Y-1468882D01*
X3223107Y-1466088D01*
X3207512Y-1464259D01*
X3201212Y-1462278D01*
X3197250Y-1461414D01*
X3180689Y-1459687D01*
X3168802Y-1456791D01*
X3148279Y-1455115D01*
X3138474Y-1452880D01*
X3120644Y-1451356D01*
X3096158Y-1449679D01*
X3092602Y-1448866D01*
X3092602Y-1446682D01*
G37*
G36*
X3314649Y-1722526D02*
G01*
X3308197Y-1730044D01*
X3308197Y-1731518D01*
X3304895Y-1734464D01*
X3301847Y-1739849D01*
X3293973Y-1750618D01*
X3282137Y-1767586D01*
X3279394Y-1772056D01*
X3275025Y-1777034D01*
X3275025Y-1778203D01*
X3270707Y-1783181D01*
X3263595Y-1794002D01*
X3255772Y-1804873D01*
X3257600Y-1808784D01*
X3265982Y-1811070D01*
X3282543Y-1812798D01*
X3294379Y-1815744D01*
X3308604Y-1817268D01*
X3315919Y-1817319D01*
X3317544Y-1813052D01*
X3318560Y-1799183D01*
X3321659Y-1781454D01*
X3323386Y-1748332D01*
X3322421Y-1728927D01*
X3320745Y-1724202D01*
X3315868Y-1722526D01*
G37*
G36*
X4557877Y-1761134D02*
G01*
X4550613Y-1762455D01*
X4546041Y-1764741D01*
X4536541Y-1766570D01*
X4533138Y-1768703D01*
X4522012Y-1771751D01*
X4517999Y-1774545D01*
X4517085Y-1777746D01*
X4521149Y-1785162D01*
X4521149Y-1787499D01*
X4524908Y-1793798D01*
X4526940Y-1799945D01*
X4530648Y-1806752D01*
X4530648Y-1808784D01*
X4536795Y-1820773D01*
X4542332Y-1820468D01*
X4548225Y-1816506D01*
X4550105Y-1816506D01*
X4556302Y-1811934D01*
X4557979Y-1811883D01*
X4561027Y-1809140D01*
X4566564Y-1805482D01*
X4576165Y-1795932D01*
X4582210Y-1785315D01*
X4582312Y-1775307D01*
X4577537Y-1766468D01*
X4570679Y-1761642D01*
G37*
G36*
X4596638Y-1843481D02*
G01*
X4581550Y-1843684D01*
X4573981Y-1844903D01*
X4567885Y-1848002D01*
X4561027Y-1849780D01*
X4558690Y-1851863D01*
X4550968Y-1855063D01*
X4544669Y-1859940D01*
X4545634Y-1868119D01*
X4548632Y-1875485D01*
X4550562Y-1887778D01*
X4552899Y-1893163D01*
X4555794Y-1909114D01*
X4558284Y-1912823D01*
X4562195Y-1913788D01*
X4572406Y-1908962D01*
X4574438Y-1908962D01*
X4596231Y-1898751D01*
X4597095Y-1897380D01*
X4602988Y-1894433D01*
X4609592Y-1889099D01*
X4615383Y-1881682D01*
X4618278Y-1872386D01*
X4618329Y-1867763D01*
X4614976Y-1855317D01*
X4608372Y-1848510D01*
X4604461Y-1845462D01*
G37*
G36*
X7880603Y-1303223D02*
G01*
X7837220Y-1303629D01*
X7809179Y-1312570D01*
X7803997Y-1317752D01*
X7799476Y-1317752D01*
X7787335Y-1327099D01*
X7774178Y-1339596D01*
X7764068Y-1354124D01*
X7756855Y-1367383D01*
X7747660Y-1393647D01*
X7747812Y-1432052D01*
X7752029Y-1437284D01*
X7755077Y-1447698D01*
X7775244Y-1492961D01*
X7796174Y-1537106D01*
X7800644Y-1547469D01*
X7804810Y-1553718D01*
X7808975Y-1564132D01*
X7812938Y-1570329D01*
X7829600Y-1605686D01*
X7832394Y-1616964D01*
X7838287Y-1621790D01*
X7838287Y-1628546D01*
X7846618Y-1642160D01*
X7846618Y-1646834D01*
X7862874Y-1682597D01*
X7876286Y-1717954D01*
X7880096Y-1721916D01*
X7880096Y-1729943D01*
X7887970Y-1747062D01*
X7896504Y-1769922D01*
X7899196Y-1780336D01*
X7904632Y-1792782D01*
X7911795Y-1813560D01*
X7916113Y-1832305D01*
X7919516Y-1836521D01*
X7925663Y-1861413D01*
X7929981Y-1873859D01*
X7939074Y-1907133D01*
X7946999Y-1932381D01*
X7947202Y-1942490D01*
X7953248Y-1959102D01*
X7957667Y-1986127D01*
X7963255Y-2002739D01*
X7966354Y-2029714D01*
X7972094Y-2045919D01*
X7972145Y-2058873D01*
X7980019Y-2096312D01*
X7982966Y-2133092D01*
X7986877Y-2146198D01*
X7993125Y-2227275D01*
X7996986Y-2260549D01*
X7997037Y-2495448D01*
X7993075Y-2524556D01*
X7986623Y-2612898D01*
X7983016Y-2622397D01*
X7980172Y-2663850D01*
X7974533Y-2686710D01*
X7971536Y-2717901D01*
X7967421Y-2728315D01*
X7962138Y-2765704D01*
X7955889Y-2790698D01*
X7946847Y-2832252D01*
X7940751Y-2853029D01*
X7934706Y-2877972D01*
X7929778Y-2896717D01*
X7924292Y-2909773D01*
X7921548Y-2925826D01*
X7909001Y-2961132D01*
X7903311Y-2979877D01*
X7894574Y-3004820D01*
X7890662Y-3013100D01*
X7883956Y-3031845D01*
X7878419Y-3048457D01*
X7871764Y-3060954D01*
X7871714Y-3067964D01*
X7867853Y-3070352D01*
X7863027Y-3085896D01*
X7854848Y-3103473D01*
X7837678Y-3142030D01*
X7834071Y-3148228D01*
X7829753Y-3158642D01*
X7820914Y-3177336D01*
X7817358Y-3183585D01*
X7812735Y-3193999D01*
X7808975Y-3200196D01*
X7804810Y-3210610D01*
X7800594Y-3216859D01*
X7798053Y-3223107D01*
X7765592Y-3291687D01*
X7756956Y-3310382D01*
X7747863Y-3334867D01*
X7747812Y-3370681D01*
X7756753Y-3396538D01*
X7765999Y-3414166D01*
X7772400Y-3421227D01*
X7790688Y-3442411D01*
X7796479Y-3442411D01*
X7796479Y-3446373D01*
X7822590Y-3458565D01*
X7843520Y-3465322D01*
X7882331Y-3465271D01*
X7907985Y-3456686D01*
X7925257Y-3444900D01*
X7942834Y-3426866D01*
X7942834Y-3419754D01*
X7948269Y-3416452D01*
X7975549Y-3374847D01*
X7978597Y-3368598D01*
X7988553Y-3351987D01*
X8035137Y-3258413D01*
X8043824Y-3239719D01*
X8047431Y-3233470D01*
X8049971Y-3227222D01*
X8057388Y-3210610D01*
X8068614Y-3183585D01*
X8074253Y-3171139D01*
X8093049Y-3125368D01*
X8102244Y-3100425D01*
X8109559Y-3081731D01*
X8114741Y-3067151D01*
X8120430Y-3048457D01*
X8129066Y-3023514D01*
X8133029Y-3015183D01*
X8137042Y-2998571D01*
X8143748Y-2977794D01*
X8148015Y-2965297D01*
X8156346Y-2936189D01*
X8161883Y-2913329D01*
X8168131Y-2892552D01*
X8172958Y-2873857D01*
X8178901Y-2842260D01*
X8183118Y-2832252D01*
X8187588Y-2801620D01*
X8191246Y-2794812D01*
X8194090Y-2769870D01*
X8199932Y-2747010D01*
X8204352Y-2707995D01*
X8208213Y-2700883D01*
X8210905Y-2661767D01*
X8216442Y-2636824D01*
X8219186Y-2595270D01*
X8225078Y-2548382D01*
X8230362Y-2426868D01*
X8229650Y-2285492D01*
X8224977Y-2179929D01*
X8221167Y-2162860D01*
X8216493Y-2108809D01*
X8212632Y-2096312D01*
X8208162Y-2054758D01*
X8203742Y-2038096D01*
X8198154Y-2002739D01*
X8193379Y-1979879D01*
X8186978Y-1952853D01*
X8183016Y-1926132D01*
X8177580Y-1915464D01*
X8174685Y-1892909D01*
X8170468Y-1885086D01*
X8166404Y-1859788D01*
X8160308Y-1848104D01*
X8160308Y-1839671D01*
X8151774Y-1811477D01*
X8145373Y-1792782D01*
X8141411Y-1776171D01*
X8135670Y-1761591D01*
X8124393Y-1724202D01*
X8119008Y-1711706D01*
X8115808Y-1697228D01*
X8110524Y-1688846D01*
X8107629Y-1674317D01*
X8102396Y-1665986D01*
X8099501Y-1653489D01*
X8093760Y-1641043D01*
X8072018Y-1584909D01*
X8068309Y-1580946D01*
X8068309Y-1575308D01*
X8041589Y-1516278D01*
X8024063Y-1478889D01*
X8020202Y-1472641D01*
X8015935Y-1462227D01*
X8006740Y-1445615D01*
X7980425Y-1395730D01*
X7970520Y-1379067D01*
X7956397Y-1352092D01*
X7924901Y-1320901D01*
X7902041Y-1310030D01*
G37*
G36*
X7433665Y-1517548D02*
G01*
X7419035Y-1520850D01*
X7393940Y-1528216D01*
X7387691Y-1532940D01*
X7371740Y-1540967D01*
X7348728Y-1563674D01*
X7340853Y-1578660D01*
X7336942Y-1586992D01*
X7330186Y-1610207D01*
X7330186Y-1632356D01*
X7336840Y-1655572D01*
X7345172Y-1678432D01*
X7355687Y-1703425D01*
X7364120Y-1722120D01*
X7404912Y-1805279D01*
X7422489Y-1844751D01*
X7427975Y-1855165D01*
X7430820Y-1868373D01*
X7436815Y-1873351D01*
X7436815Y-1882343D01*
X7445197Y-1898650D01*
X7445197Y-1904187D01*
X7453528Y-1920493D01*
X7453680Y-1927910D01*
X7461758Y-1944573D01*
X7462012Y-1952853D01*
X7469631Y-1969566D01*
X7472730Y-1986127D01*
X7476337Y-1990445D01*
X7482331Y-2017318D01*
X7486802Y-2029815D01*
X7493457Y-2056790D01*
X7497572Y-2079701D01*
X7503363Y-2098395D01*
X7506055Y-2121255D01*
X7511796Y-2142032D01*
X7514691Y-2173224D01*
X7518653Y-2183638D01*
X7524445Y-2246020D01*
X7529575Y-2275078D01*
X7529728Y-2503779D01*
X7522718Y-2539136D01*
X7520127Y-2576525D01*
X7514539Y-2597353D01*
X7511897Y-2624378D01*
X7503566Y-2661767D01*
X7498994Y-2680512D01*
X7494016Y-2707538D01*
X7489088Y-2722067D01*
X7476236Y-2771902D01*
X7472832Y-2776118D01*
X7468463Y-2794812D01*
X7461351Y-2815640D01*
X7455916Y-2828086D01*
X7453223Y-2838500D01*
X7444536Y-2861360D01*
X7437170Y-2877972D01*
X7428026Y-2900832D01*
X7385964Y-2994406D01*
X7382408Y-3000654D01*
X7353147Y-3063494D01*
X7353198Y-3067151D01*
X7345121Y-3083814D01*
X7336891Y-3102508D01*
X7331456Y-3117088D01*
X7329881Y-3152902D01*
X7336434Y-3168497D01*
X7336434Y-3175304D01*
X7347458Y-3196082D01*
X7363663Y-3216402D01*
X7387132Y-3234537D01*
X7391501Y-3234537D01*
X7398105Y-3240074D01*
X7426299Y-3249015D01*
X7448296Y-3251403D01*
X7467142Y-3247288D01*
X7488021Y-3240024D01*
X7491374Y-3234537D01*
X7496403Y-3234486D01*
X7516469Y-3217418D01*
X7548676Y-3177286D01*
X7558074Y-3164027D01*
X7558074Y-3159556D01*
X7564069Y-3157270D01*
X7568692Y-3146145D01*
X7578902Y-3129534D01*
X7624978Y-3033420D01*
X7624978Y-3027121D01*
X7631023Y-3022193D01*
X7633919Y-3008985D01*
X7641742Y-2994456D01*
X7641742Y-2989173D01*
X7650073Y-2973679D01*
X7650073Y-2968396D01*
X7658455Y-2952902D01*
X7658455Y-2945536D01*
X7666837Y-2930042D01*
X7666837Y-2920847D01*
X7670952Y-2918307D01*
X7677861Y-2894685D01*
X7681163Y-2888386D01*
X7688021Y-2867609D01*
X7693761Y-2846781D01*
X7700111Y-2830169D01*
X7700264Y-2820568D01*
X7705242Y-2811475D01*
X7710424Y-2786532D01*
X7716824Y-2769870D01*
X7717028Y-2758338D01*
X7722920Y-2744216D01*
X7725918Y-2719984D01*
X7730134Y-2709621D01*
X7738059Y-2668016D01*
X7742275Y-2640990D01*
X7748371Y-2611882D01*
X7750759Y-2580690D01*
X7756601Y-2549499D01*
X7760919Y-2470505D01*
X7764983Y-2416454D01*
X7764983Y-2358237D01*
X7761020Y-2304186D01*
X7756601Y-2223109D01*
X7750708Y-2191969D01*
X7747914Y-2154631D01*
X7744307Y-2145233D01*
X7739786Y-2108809D01*
X7734096Y-2087981D01*
X7731455Y-2062022D01*
X7725867Y-2048510D01*
X7722819Y-2023567D01*
X7717028Y-2012340D01*
X7717028Y-1999640D01*
X7708950Y-1975713D01*
X7706055Y-1957019D01*
X7701838Y-1948992D01*
X7696606Y-1925828D01*
X7685328Y-1892554D01*
X7680909Y-1873859D01*
X7675168Y-1865680D01*
X7675168Y-1857857D01*
X7669123Y-1844751D01*
X7660386Y-1819808D01*
X7655864Y-1805279D01*
X7650073Y-1797050D01*
X7650073Y-1791512D01*
X7639456Y-1767839D01*
X7633360Y-1756054D01*
X7633360Y-1752346D01*
X7614005Y-1711706D01*
X7578547Y-1641043D01*
X7568844Y-1624380D01*
X7562240Y-1611934D01*
X7552080Y-1595272D01*
X7538212Y-1569720D01*
X7519009Y-1545183D01*
X7494778Y-1529181D01*
X7467142Y-1519478D01*
G37*
G36*
X6998766Y-1733550D02*
G01*
X6973265Y-1743659D01*
X6954469Y-1756257D01*
X6927392Y-1782927D01*
X6912508Y-1813560D01*
X6910324Y-1836470D01*
X6913778Y-1855165D01*
X6922008Y-1883664D01*
X6926580Y-1888236D01*
X6926580Y-1893874D01*
X6937552Y-1917547D01*
X6945731Y-1936242D01*
X6949643Y-1942490D01*
X6952081Y-1948688D01*
X6962495Y-1971598D01*
X6966356Y-1977796D01*
X6968794Y-1984044D01*
X6979361Y-2006904D01*
X6985660Y-2021484D01*
X6993534Y-2036825D01*
X6993534Y-2042312D01*
X7001865Y-2057857D01*
X7001865Y-2064664D01*
X7009892Y-2081784D01*
X7016750Y-2102561D01*
X7020814Y-2118563D01*
X7026402Y-2129586D01*
X7029297Y-2146198D01*
X7034987Y-2162860D01*
X7042048Y-2191969D01*
X7047534Y-2223973D01*
X7050074Y-2228138D01*
X7056069Y-2275078D01*
X7061047Y-2295906D01*
X7061149Y-2466340D01*
X7054443Y-2496261D01*
X7051497Y-2526639D01*
X7043674Y-2557475D01*
X7043674Y-2571546D01*
X7037933Y-2582773D01*
X7034885Y-2605633D01*
X7029094Y-2618130D01*
X7025182Y-2636824D01*
X7018781Y-2653487D01*
X7018629Y-2661869D01*
X7012940Y-2670098D01*
X7010044Y-2682544D01*
X6993534Y-2723184D01*
X6993534Y-2728823D01*
X6987489Y-2733802D01*
X6984695Y-2747010D01*
X6979259Y-2757424D01*
X6959447Y-2801061D01*
X6955840Y-2807309D01*
X6953351Y-2813558D01*
X6934453Y-2855112D01*
X6926580Y-2870504D01*
X6926580Y-2877667D01*
X6920992Y-2884220D01*
X6911746Y-2912110D01*
X6911695Y-2941066D01*
X6918248Y-2953664D01*
X6918248Y-2960217D01*
X6930390Y-2983992D01*
X6946493Y-3000857D01*
X6965289Y-3015640D01*
X6986219Y-3026206D01*
X7002932Y-3033420D01*
X7042658Y-3035452D01*
X7057288Y-3031032D01*
X7071918Y-3025597D01*
X7088682Y-3015437D01*
X7114946Y-2988157D01*
X7120839Y-2981096D01*
X7127443Y-2969463D01*
X7134656Y-2958388D01*
X7148677Y-2934512D01*
X7161479Y-2911246D01*
X7182764Y-2869488D01*
X7206792Y-2816910D01*
X7206792Y-2813558D01*
X7215784Y-2794812D01*
X7220864Y-2782366D01*
X7231888Y-2754223D01*
X7231888Y-2749702D01*
X7237730Y-2736596D01*
X7244740Y-2715818D01*
X7251039Y-2690926D01*
X7254443Y-2686710D01*
X7257288Y-2668016D01*
X7265365Y-2644089D01*
X7265365Y-2634234D01*
X7271258Y-2617571D01*
X7274052Y-2593187D01*
X7280148Y-2571140D01*
X7283958Y-2528722D01*
X7289393Y-2505862D01*
X7289393Y-2277160D01*
X7284415Y-2256383D01*
X7279640Y-2202332D01*
X7274052Y-2181555D01*
X7271410Y-2156612D01*
X7265670Y-2137867D01*
X7262977Y-2118004D01*
X7256983Y-2103729D01*
X7256780Y-2092147D01*
X7250480Y-2075535D01*
X7244943Y-2052675D01*
X7239762Y-2038096D01*
X7231888Y-2017217D01*
X7231888Y-2011019D01*
X7223506Y-1995525D01*
X7223506Y-1988159D01*
X7215174Y-1972614D01*
X7215174Y-1968195D01*
X7204557Y-1944573D01*
X7198410Y-1932787D01*
X7198410Y-1928469D01*
X7179462Y-1888439D01*
X7175449Y-1882190D01*
X7171232Y-1871776D01*
X7167067Y-1865579D01*
X7162901Y-1855165D01*
X7158786Y-1848916D01*
X7152386Y-1836470D01*
X7142175Y-1819808D01*
X7138009Y-1810664D01*
X7122515Y-1788617D01*
X7105396Y-1767890D01*
X7093407Y-1757730D01*
X7087108Y-1751431D01*
X7068972Y-1741881D01*
X7063587Y-1741830D01*
X7051040Y-1735074D01*
G37*
G36*
X6622338Y-1933600D02*
G01*
X6605625Y-1936800D01*
X6590995Y-1941931D01*
X6567982Y-1952650D01*
X6563817Y-1955952D01*
X6534556Y-1982571D01*
X6518909Y-2011984D01*
X6512356Y-2043633D01*
X6518706Y-2083358D01*
X6525158Y-2090420D01*
X6525158Y-2096973D01*
X6536537Y-2119172D01*
X6539280Y-2121255D01*
X6546138Y-2135835D01*
X6551422Y-2144725D01*
X6557365Y-2151837D01*
X6562648Y-2160778D01*
X6570776Y-2177948D01*
X6574993Y-2180539D01*
X6577685Y-2192680D01*
X6583680Y-2197658D01*
X6583680Y-2204466D01*
X6592062Y-2220010D01*
X6592062Y-2226513D01*
X6599783Y-2246020D01*
X6607200Y-2275078D01*
X6617004Y-2343708D01*
X6617106Y-2420620D01*
X6612636Y-2445562D01*
X6607251Y-2487168D01*
X6599783Y-2516276D01*
X6592062Y-2535732D01*
X6592062Y-2545892D01*
X6586016Y-2550871D01*
X6583324Y-2563063D01*
X6565442Y-2597353D01*
X6557568Y-2611272D01*
X6544716Y-2628493D01*
X6531102Y-2656535D01*
X6527546Y-2658719D01*
X6524701Y-2672181D01*
X6518605Y-2681782D01*
X6512458Y-2716885D01*
X6518503Y-2751429D01*
X6528054Y-2769870D01*
X6542582Y-2790698D01*
X6553352Y-2801162D01*
X6572199Y-2815945D01*
X6590741Y-2825343D01*
X6625539Y-2831338D01*
X6657898Y-2825191D01*
X6673088Y-2817368D01*
X6685076Y-2808274D01*
X6701383Y-2794812D01*
X6714388Y-2781909D01*
X6729018Y-2764129D01*
X6735267Y-2757322D01*
X6755130Y-2729179D01*
X6755130Y-2727452D01*
X6765137Y-2712821D01*
X6788048Y-2665933D01*
X6796531Y-2647238D01*
X6799630Y-2636824D01*
X6805320Y-2628646D01*
X6805320Y-2620111D01*
X6810959Y-2611882D01*
X6816090Y-2591155D01*
X6819595Y-2586939D01*
X6823811Y-2566162D01*
X6830212Y-2549499D01*
X6830415Y-2538577D01*
X6836308Y-2524556D01*
X6839102Y-2499614D01*
X6844842Y-2478836D01*
X6849211Y-2428951D01*
X6853377Y-2393594D01*
X6853326Y-2352040D01*
X6849465Y-2325014D01*
X6844792Y-2273046D01*
X6839254Y-2254300D01*
X6835140Y-2233523D01*
X6828129Y-2206498D01*
X6824014Y-2198166D01*
X6818122Y-2175306D01*
X6811568Y-2152446D01*
X6805320Y-2139340D01*
X6805320Y-2134514D01*
X6788962Y-2098395D01*
X6775907Y-2071370D01*
X6771995Y-2065121D01*
X6758279Y-2040839D01*
X6743801Y-2019401D01*
X6718909Y-1986127D01*
X6706006Y-1971852D01*
X6691731Y-1959102D01*
X6684619Y-1952396D01*
X6664198Y-1941779D01*
X6647434Y-1935480D01*
G37*
G36*
X495300Y-3352596D02*
G01*
X495300Y-3353003D01*
X490423Y-3353257D01*
X478739Y-3354578D01*
X470814Y-3355898D01*
X462330Y-3357829D01*
X461264Y-3357829D01*
X450799Y-3360775D01*
X438759Y-3364788D01*
X429768Y-3368294D01*
X420827Y-3372459D01*
X409346Y-3378555D01*
X403199Y-3382162D01*
X391464Y-3390137D01*
X385419Y-3394659D01*
X377698Y-3400958D01*
X373329Y-3404870D01*
X361086Y-3417062D01*
X350774Y-3429254D01*
X341680Y-3441852D01*
X334670Y-3453180D01*
X331165Y-3459378D01*
X325526Y-3470808D01*
X321208Y-3481019D01*
X318160Y-3489045D01*
X313334Y-3505250D01*
X310540Y-3518001D01*
X308965Y-3527247D01*
X307390Y-3541014D01*
X307136Y-3546144D01*
X306781Y-3546144D01*
X306781Y-3568700D01*
X307136Y-3568852D01*
X307594Y-3576472D01*
X309270Y-3590391D01*
X311607Y-3602736D01*
X314401Y-3614318D01*
X317347Y-3623767D01*
X319582Y-3630168D01*
X321767Y-3635552D01*
X321767Y-3635959D01*
X328828Y-3651504D01*
X335483Y-3663797D01*
X342849Y-3675227D01*
X350113Y-3685336D01*
X357886Y-3694785D01*
X365404Y-3702761D01*
X372059Y-3709314D01*
X382270Y-3718356D01*
X394766Y-3727704D01*
X404977Y-3734308D01*
X411632Y-3738168D01*
X419557Y-3742283D01*
X426110Y-3745382D01*
X438607Y-3750564D01*
X443941Y-3752494D01*
X449376Y-3752494D01*
X451459Y-3751834D01*
X453237Y-3750919D01*
X455422Y-3748836D01*
X456742Y-3746093D01*
X457301Y-3743706D01*
X456895Y-3704945D01*
X456590Y-3704386D01*
X454355Y-3704894D01*
X439166Y-3706622D01*
X430631Y-3706622D01*
X425196Y-3706164D01*
X417880Y-3704844D01*
X413308Y-3703523D01*
X407670Y-3701034D01*
X401015Y-3696868D01*
X397002Y-3692906D01*
X393344Y-3687927D01*
X392176Y-3685844D01*
X387146Y-3674668D01*
X382270Y-3666083D01*
X376428Y-3657904D01*
X371856Y-3653078D01*
X367080Y-3649979D01*
X363931Y-3647592D01*
X360781Y-3644341D01*
X359867Y-3642207D01*
X359867Y-3640582D01*
X361188Y-3639210D01*
X362712Y-3638550D01*
X365810Y-3637838D01*
X372059Y-3637787D01*
X376224Y-3638753D01*
X379526Y-3639870D01*
X383336Y-3641801D01*
X388874Y-3645814D01*
X390398Y-3647135D01*
X394360Y-3651300D01*
X397865Y-3655974D01*
X403606Y-3664559D01*
X405688Y-3667150D01*
X408584Y-3670198D01*
X412140Y-3673398D01*
X415594Y-3675735D01*
X419912Y-3677970D01*
X423722Y-3679444D01*
X429971Y-3680866D01*
X440842Y-3680815D01*
X448106Y-3679291D01*
X452475Y-3677970D01*
X456031Y-3676599D01*
X457911Y-3675634D01*
X459638Y-3667709D01*
X461162Y-3662832D01*
X463905Y-3656939D01*
X466801Y-3652418D01*
X470560Y-3648354D01*
X455066Y-3645814D01*
X445211Y-3643528D01*
X437134Y-3640937D01*
X436575Y-3640937D01*
X425348Y-3636162D01*
X417220Y-3631488D01*
X411784Y-3627780D01*
X404520Y-3621430D01*
X400100Y-3616502D01*
X396189Y-3611270D01*
X391414Y-3603244D01*
X388061Y-3596030D01*
X384556Y-3585768D01*
X382727Y-3578047D01*
X381152Y-3569106D01*
X379882Y-3555593D01*
X379882Y-3540607D01*
X381152Y-3531006D01*
X381914Y-3526840D01*
X382371Y-3525926D01*
X382371Y-3525164D01*
X384200Y-3519271D01*
X385775Y-3514953D01*
X388010Y-3510026D01*
X391414Y-3503828D01*
X394614Y-3498900D01*
X400100Y-3491941D01*
X399846Y-3490417D01*
X398576Y-3486454D01*
X397154Y-3480257D01*
X396138Y-3470351D01*
X396138Y-3466236D01*
X396951Y-3457295D01*
X398018Y-3451453D01*
X399288Y-3446424D01*
X401980Y-3438144D01*
X402488Y-3437432D01*
X406400Y-3436924D01*
X412496Y-3437483D01*
X414832Y-3438042D01*
X415798Y-3438042D01*
X421335Y-3439668D01*
X429361Y-3442665D01*
X430530Y-3443274D01*
X430936Y-3443274D01*
X441655Y-3448761D01*
X450799Y-3454247D01*
X456946Y-3458311D01*
X458470Y-3458311D01*
X462686Y-3457041D01*
X472897Y-3454857D01*
X482955Y-3453079D01*
X497890Y-3451707D01*
X517702Y-3451758D01*
X523951Y-3452418D01*
X526237Y-3452418D01*
X529590Y-3453079D01*
X531520Y-3453079D01*
X547065Y-3455873D01*
X556260Y-3458311D01*
X557631Y-3458311D01*
X568604Y-3451098D01*
X568909Y-3451098D01*
X569569Y-3450488D01*
X576224Y-3446779D01*
X585825Y-3442309D01*
X591667Y-3440074D01*
X596036Y-3438753D01*
X601878Y-3437483D01*
X606044Y-3436975D01*
X609803Y-3436975D01*
X612190Y-3437483D01*
X614426Y-3443833D01*
X615950Y-3449065D01*
X617575Y-3457956D01*
X618236Y-3465982D01*
X618032Y-3475939D01*
X616712Y-3483406D01*
X615543Y-3487978D01*
X614273Y-3491839D01*
X619048Y-3497732D01*
X622909Y-3503422D01*
X625297Y-3507536D01*
X629208Y-3516223D01*
X631799Y-3524046D01*
X633577Y-3532327D01*
X634288Y-3537864D01*
X634847Y-3546906D01*
X634238Y-3560622D01*
X632206Y-3576523D01*
X631748Y-3577691D01*
X631748Y-3578809D01*
X628599Y-3590188D01*
X626719Y-3595420D01*
X621893Y-3605377D01*
X617474Y-3612337D01*
X615289Y-3615385D01*
X611124Y-3620262D01*
X606044Y-3625037D01*
X602894Y-3627577D01*
X596849Y-3631793D01*
X591261Y-3635044D01*
X584149Y-3638397D01*
X574700Y-3641902D01*
X566826Y-3644239D01*
X566064Y-3644239D01*
X557682Y-3646119D01*
X549960Y-3647490D01*
X548538Y-3647490D01*
X543763Y-3648354D01*
X546862Y-3651707D01*
X550621Y-3657396D01*
X552958Y-3662375D01*
X554228Y-3666083D01*
X556107Y-3674110D01*
X556869Y-3679139D01*
X556717Y-3743960D01*
X557580Y-3746855D01*
X558444Y-3748633D01*
X559917Y-3750310D01*
X562051Y-3751783D01*
X564489Y-3752596D01*
X569976Y-3752545D01*
X578967Y-3749243D01*
X589686Y-3744518D01*
X601472Y-3738575D01*
X606044Y-3735984D01*
X614172Y-3730904D01*
X620268Y-3726738D01*
X627583Y-3721303D01*
X635609Y-3714648D01*
X645007Y-3706114D01*
X653948Y-3696715D01*
X664210Y-3684320D01*
X671017Y-3674770D01*
X677519Y-3664559D01*
X680821Y-3658819D01*
X684631Y-3651504D01*
X690981Y-3637584D01*
X694436Y-3628440D01*
X698601Y-3615842D01*
X702716Y-3598773D01*
X703935Y-3591814D01*
X705510Y-3580841D01*
X706120Y-3574287D01*
X706374Y-3568852D01*
X706780Y-3568700D01*
X706780Y-3546195D01*
X706374Y-3546043D01*
X705713Y-3536442D01*
X704545Y-3527247D01*
X702056Y-3513175D01*
X701141Y-3509721D01*
X701141Y-3508908D01*
X698347Y-3498748D01*
X694588Y-3487115D01*
X690524Y-3476650D01*
X686054Y-3466795D01*
X680415Y-3455873D01*
X672896Y-3443376D01*
X663854Y-3430778D01*
X656437Y-3421634D01*
X650951Y-3415537D01*
X640181Y-3404870D01*
X630224Y-3396284D01*
X623925Y-3391408D01*
X611428Y-3382822D01*
X602488Y-3377488D01*
X585927Y-3369259D01*
X576021Y-3365195D01*
X568401Y-3362401D01*
X567588Y-3362401D01*
X563727Y-3361029D01*
X554482Y-3358489D01*
X543102Y-3355848D01*
X534771Y-3354578D01*
X523087Y-3353257D01*
X518210Y-3353003D01*
X518210Y-3352596D01*
G37*
G36*
X719277Y-4190593D02*
G01*
X305917Y-4190644D01*
X303682Y-4191355D01*
X302768Y-4191863D01*
X304647Y-4194708D01*
X307187Y-4196181D01*
X308051Y-4197197D01*
X329996Y-4215028D01*
X335483Y-4219905D01*
X337616Y-4221226D01*
X346252Y-4228541D01*
X346964Y-4228541D01*
X349148Y-4230878D01*
X353161Y-4234180D01*
X354939Y-4235399D01*
X363728Y-4242968D01*
X365099Y-4243730D01*
X373075Y-4250486D01*
X384657Y-4259884D01*
X385216Y-4259884D01*
X389585Y-4263948D01*
X401015Y-4273194D01*
X404774Y-4276496D01*
X413258Y-4283303D01*
X414121Y-4284421D01*
X420674Y-4289298D01*
X425094Y-4293260D01*
X425704Y-4293260D01*
X445770Y-4310126D01*
X448259Y-4311802D01*
X457200Y-4319625D01*
X459485Y-4321048D01*
X468833Y-4329125D01*
X470052Y-4329125D01*
X471119Y-4331106D01*
X481279Y-4339031D01*
X483362Y-4341063D01*
X486765Y-4343501D01*
X499618Y-4354169D01*
X502666Y-4356455D01*
X507898Y-4360976D01*
X510641Y-4362602D01*
X511505Y-4364177D01*
X512267Y-4364177D01*
X518464Y-4359808D01*
X523748Y-4354982D01*
X526084Y-4353560D01*
X529539Y-4350207D01*
X535686Y-4345635D01*
X542340Y-4339844D01*
X544220Y-4338574D01*
X547624Y-4335475D01*
X638251Y-4261358D01*
X638251Y-4260697D01*
X640130Y-4259935D01*
X652119Y-4250029D01*
X654913Y-4247946D01*
X657047Y-4245914D01*
X660857Y-4243070D01*
X662228Y-4241698D01*
X697585Y-4212742D01*
X704291Y-4207510D01*
X718413Y-4195826D01*
X720547Y-4194403D01*
X721106Y-4192066D01*
G37*
G36*
X290169Y-4204716D02*
G01*
X288391Y-4206595D01*
X288391Y-4209745D01*
X287426Y-4212082D01*
X287172Y-4442002D01*
X287680Y-4451146D01*
X290220Y-4453686D01*
X296367Y-4447032D01*
X336346Y-4407712D01*
X339445Y-4404461D01*
X366268Y-4378604D01*
X370128Y-4374540D01*
X382727Y-4362297D01*
X387045Y-4357827D01*
X406044Y-4339132D01*
X411378Y-4333494D01*
X414172Y-4328515D01*
X414782Y-4325416D01*
X416001Y-4323080D01*
X415950Y-4316831D01*
X413816Y-4308906D01*
X410972Y-4304233D01*
X403758Y-4297375D01*
X401624Y-4296613D01*
X401624Y-4295902D01*
X395935Y-4291431D01*
X350012Y-4253788D01*
X341020Y-4245965D01*
X338886Y-4245051D01*
X332943Y-4239514D01*
X326644Y-4234078D01*
X323342Y-4231894D01*
X322427Y-4230776D01*
X314401Y-4224528D01*
X295808Y-4209338D01*
X292404Y-4206138D01*
G37*
G36*
X733298Y-4205224D02*
G01*
X726541Y-4211472D01*
X725678Y-4211472D01*
X723392Y-4213809D01*
X710285Y-4224121D01*
X706069Y-4228134D01*
X695045Y-4236872D01*
X689152Y-4242308D01*
X687019Y-4243730D01*
X686612Y-4244238D01*
X681532Y-4247946D01*
X678586Y-4250639D01*
X659587Y-4265828D01*
X654608Y-4270197D01*
X641959Y-4280509D01*
X638708Y-4283506D01*
X635508Y-4285640D01*
X624382Y-4295140D01*
X620318Y-4298035D01*
X612952Y-4305249D01*
X609904Y-4311548D01*
X609396Y-4322267D01*
X610260Y-4328109D01*
X614375Y-4334662D01*
X703935Y-4423054D01*
X705205Y-4424121D01*
X734110Y-4453077D01*
X736244Y-4453077D01*
X737158Y-4451350D01*
X737108Y-4208932D01*
X736549Y-4206240D01*
X735736Y-4205224D01*
G37*
G36*
X581812Y-4330496D02*
G01*
X580542Y-4331004D01*
X522681Y-4378299D01*
X520090Y-4380890D01*
X519176Y-4380890D01*
X518159Y-4382109D01*
X513588Y-4384649D01*
X511251Y-4384598D01*
X505764Y-4381601D01*
X502818Y-4378858D01*
X483971Y-4363567D01*
X479602Y-4359706D01*
X455726Y-4340606D01*
X451510Y-4336643D01*
X450850Y-4336643D01*
X447395Y-4333494D01*
X443941Y-4330801D01*
X440893Y-4330801D01*
X434390Y-4336948D01*
X302310Y-4467250D01*
X302310Y-4468114D01*
X305257Y-4469333D01*
X307187Y-4469333D01*
X310591Y-4470552D01*
X713740Y-4470603D01*
X717905Y-4469333D01*
X721360Y-4469333D01*
X722731Y-4467809D01*
X722731Y-4467148D01*
X709066Y-4454093D01*
X603808Y-4349953D01*
X584454Y-4331106D01*
G37*
D10*
X980186Y-3480307D02*
G01*
X961644Y-3461765D01*
X933957Y-3452621D01*
X897128Y-3452621D01*
X869442Y-3461765D01*
X850900Y-3480307D01*
X850900Y-3498850D01*
X860044Y-3517137D01*
X869442Y-3526536D01*
X887729Y-3535679D01*
X943355Y-3554221D01*
X961644Y-3563365D01*
X971042Y-3572510D01*
X980186Y-3591052D01*
X980186Y-3618737D01*
X961644Y-3637279D01*
X933957Y-3646423D01*
X897128Y-3646423D01*
X869442Y-3637279D01*
X850900Y-3618737D01*
X1041145Y-3517137D02*
G01*
X1041145Y-3646423D01*
X1041145Y-3554221D02*
G01*
X1068831Y-3526536D01*
X1087373Y-3517137D01*
X1115060Y-3517137D01*
X1133602Y-3526536D01*
X1142745Y-3554221D01*
X1142745Y-3646423D01*
X1142745Y-3554221D02*
G01*
X1170431Y-3526536D01*
X1188973Y-3517137D01*
X1216660Y-3517137D01*
X1235202Y-3526536D01*
X1244345Y-3554221D01*
X1244345Y-3646423D01*
X1416050Y-3517137D02*
G01*
X1416050Y-3646423D01*
X1416050Y-3544823D02*
G01*
X1397762Y-3526536D01*
X1379220Y-3517137D01*
X1351534Y-3517137D01*
X1332992Y-3526536D01*
X1314450Y-3544823D01*
X1305305Y-3572510D01*
X1305305Y-3591052D01*
X1314450Y-3618737D01*
X1332992Y-3637279D01*
X1351534Y-3646423D01*
X1379220Y-3646423D01*
X1397762Y-3637279D01*
X1416050Y-3618737D01*
X1477010Y-3517137D02*
G01*
X1477010Y-3646423D01*
X1477010Y-3572510D02*
G01*
X1486407Y-3544823D01*
X1504950Y-3526536D01*
X1523237Y-3517137D01*
X1550923Y-3517137D01*
X1639570Y-3452621D02*
G01*
X1639570Y-3609594D01*
X1648968Y-3637279D01*
X1667510Y-3646423D01*
X1685797Y-3646423D01*
X1611884Y-3517137D02*
G01*
X1676654Y-3517137D01*
X1876044Y-3480307D02*
G01*
X1857755Y-3461765D01*
X1830070Y-3452621D01*
X1792986Y-3452621D01*
X1765300Y-3461765D01*
X1746757Y-3480307D01*
X1746757Y-3498850D01*
X1756155Y-3517137D01*
X1765300Y-3526536D01*
X1783842Y-3535679D01*
X1839213Y-3554221D01*
X1857755Y-3563365D01*
X1866900Y-3572510D01*
X1876044Y-3591052D01*
X1876044Y-3618737D01*
X1857755Y-3637279D01*
X1830070Y-3646423D01*
X1792986Y-3646423D01*
X1765300Y-3637279D01*
X1746757Y-3618737D01*
X1937004Y-3517137D02*
G01*
X1937004Y-3711194D01*
X1937004Y-3544823D02*
G01*
X1955545Y-3526536D01*
X1974088Y-3517137D01*
X2001774Y-3517137D01*
X2020315Y-3526536D01*
X2038604Y-3544823D01*
X2048002Y-3572510D01*
X2048002Y-3591052D01*
X2038604Y-3618737D01*
X2020315Y-3637279D01*
X2001774Y-3646423D01*
X1974088Y-3646423D01*
X1955545Y-3637279D01*
X1937004Y-3618737D01*
X2219706Y-3517137D02*
G01*
X2219706Y-3646423D01*
X2219706Y-3544823D02*
G01*
X2201163Y-3526536D01*
X2182875Y-3517137D01*
X2155190Y-3517137D01*
X2136647Y-3526536D01*
X2118106Y-3544823D01*
X2108961Y-3572510D01*
X2108961Y-3591052D01*
X2118106Y-3618737D01*
X2136647Y-3637279D01*
X2155190Y-3646423D01*
X2182875Y-3646423D01*
X2201163Y-3637279D01*
X2219706Y-3618737D01*
X2280665Y-3517137D02*
G01*
X2280665Y-3646423D01*
X2280665Y-3572510D02*
G01*
X2289809Y-3544823D01*
X2308352Y-3526536D01*
X2326893Y-3517137D01*
X2354579Y-3517137D01*
X2415540Y-3452621D02*
G01*
X2415540Y-3646423D01*
X2507995Y-3517137D02*
G01*
X2415540Y-3609594D01*
X2452370Y-3572510D02*
G01*
X2517140Y-3646423D01*
X2716529Y-3498850D02*
G01*
X2707386Y-3480307D01*
X2688843Y-3461765D01*
X2670556Y-3452621D01*
X2633472Y-3452621D01*
X2614929Y-3461765D01*
X2596641Y-3480307D01*
X2587243Y-3498850D01*
X2578100Y-3526536D01*
X2578100Y-3572510D01*
X2587243Y-3600450D01*
X2596641Y-3618737D01*
X2614929Y-3637279D01*
X2633472Y-3646423D01*
X2670556Y-3646423D01*
X2688843Y-3637279D01*
X2707386Y-3618737D01*
X2716529Y-3600450D01*
X2823718Y-3517137D02*
G01*
X2805429Y-3526536D01*
X2786888Y-3544823D01*
X2777490Y-3572510D01*
X2777490Y-3591052D01*
X2786888Y-3618737D01*
X2805429Y-3637279D01*
X2823718Y-3646423D01*
X2851404Y-3646423D01*
X2869945Y-3637279D01*
X2888488Y-3618737D01*
X2897631Y-3591052D01*
X2897631Y-3572510D01*
X2888488Y-3544823D01*
X2869945Y-3526536D01*
X2851404Y-3517137D01*
X2823718Y-3517137D01*
X3069590Y-3452621D02*
G01*
X3069590Y-3646423D01*
X3069590Y-3544823D02*
G01*
X3051047Y-3526536D01*
X3032506Y-3517137D01*
X3004820Y-3517137D01*
X2986277Y-3526536D01*
X2967990Y-3544823D01*
X2958591Y-3572510D01*
X2958591Y-3591052D01*
X2967990Y-3618737D01*
X2986277Y-3637279D01*
X3004820Y-3646423D01*
X3032506Y-3646423D01*
X3051047Y-3637279D01*
X3069590Y-3618737D01*
X3130550Y-3452621D02*
G01*
X3139693Y-3461765D01*
X3148838Y-3452621D01*
X3139693Y-3443223D01*
X3130550Y-3452621D01*
X3139693Y-3517137D02*
G01*
X3139693Y-3646423D01*
X3209797Y-3517137D02*
G01*
X3209797Y-3646423D01*
X3209797Y-3554221D02*
G01*
X3237484Y-3526536D01*
X3256025Y-3517137D01*
X3283711Y-3517137D01*
X3302254Y-3526536D01*
X3311397Y-3554221D01*
X3311397Y-3646423D01*
X3483356Y-3517137D02*
G01*
X3483356Y-3664965D01*
X3473958Y-3692652D01*
X3464813Y-3702050D01*
X3446272Y-3711194D01*
X3418586Y-3711194D01*
X3400043Y-3702050D01*
X3483356Y-3544823D02*
G01*
X3464813Y-3526536D01*
X3446272Y-3517137D01*
X3418586Y-3517137D01*
X3400043Y-3526536D01*
X3381756Y-3544823D01*
X3372358Y-3572510D01*
X3372358Y-3591052D01*
X3381756Y-3618737D01*
X3400043Y-3637279D01*
X3418586Y-3646423D01*
X3446272Y-3646423D01*
X3464813Y-3637279D01*
X3483356Y-3618737D01*
X890778Y-4242815D02*
G01*
X897636Y-4249673D01*
X904494Y-4242815D01*
X897636Y-4235957D01*
X890778Y-4242815D01*
X897636Y-4290568D02*
G01*
X897636Y-4406392D01*
X890778Y-4426965D01*
X877315Y-4433823D01*
X863600Y-4433823D01*
X1031239Y-4290568D02*
G01*
X1031239Y-4386071D01*
X1031239Y-4311142D02*
G01*
X1017778Y-4297426D01*
X1004062Y-4290568D01*
X983487Y-4290568D01*
X970026Y-4297426D01*
X956310Y-4311142D01*
X949452Y-4331462D01*
X949452Y-4345178D01*
X956310Y-4365497D01*
X970026Y-4379213D01*
X983487Y-4386071D01*
X1004062Y-4386071D01*
X1017778Y-4379213D01*
X1031239Y-4365497D01*
X1158239Y-4311142D02*
G01*
X1144523Y-4297426D01*
X1130807Y-4290568D01*
X1110487Y-4290568D01*
X1096771Y-4297426D01*
X1083055Y-4311142D01*
X1076452Y-4331462D01*
X1076452Y-4345178D01*
X1083055Y-4365497D01*
X1096771Y-4379213D01*
X1110487Y-4386071D01*
X1130807Y-4386071D01*
X1144523Y-4379213D01*
X1158239Y-4365497D01*
X1237234Y-4290568D02*
G01*
X1223518Y-4297426D01*
X1210055Y-4311142D01*
X1203197Y-4331462D01*
X1203197Y-4345178D01*
X1210055Y-4365497D01*
X1223518Y-4379213D01*
X1237234Y-4386071D01*
X1257807Y-4386071D01*
X1271270Y-4379213D01*
X1284986Y-4365497D01*
X1291844Y-4345178D01*
X1291844Y-4331462D01*
X1284986Y-4311142D01*
X1271270Y-4297426D01*
X1257807Y-4290568D01*
X1237234Y-4290568D01*
X1336802Y-4242815D02*
G01*
X1336802Y-4386071D01*
X1336802Y-4311142D02*
G01*
X1350518Y-4297426D01*
X1363979Y-4290568D01*
X1384554Y-4290568D01*
X1398270Y-4297426D01*
X1411731Y-4311142D01*
X1418589Y-4331462D01*
X1418589Y-4345178D01*
X1411731Y-4365497D01*
X1398270Y-4379213D01*
X1384554Y-4386071D01*
X1363979Y-4386071D01*
X1350518Y-4379213D01*
X1336802Y-4365497D01*
X1470405Y-4352036D02*
G01*
X1463547Y-4358639D01*
X1470405Y-4365497D01*
X1477263Y-4358639D01*
X1470405Y-4352036D01*
X1522221Y-4290568D02*
G01*
X1522221Y-4386071D01*
X1522221Y-4317745D02*
G01*
X1542795Y-4297426D01*
X1556257Y-4290568D01*
X1576831Y-4290568D01*
X1590294Y-4297426D01*
X1597152Y-4317745D01*
X1597152Y-4386071D01*
X1724152Y-4290568D02*
G01*
X1724152Y-4386071D01*
X1724152Y-4311142D02*
G01*
X1710436Y-4297426D01*
X1696720Y-4290568D01*
X1676400Y-4290568D01*
X1662684Y-4297426D01*
X1648968Y-4311142D01*
X1642110Y-4331462D01*
X1642110Y-4345178D01*
X1648968Y-4365497D01*
X1662684Y-4379213D01*
X1676400Y-4386071D01*
X1696720Y-4386071D01*
X1710436Y-4379213D01*
X1724152Y-4365497D01*
X1769110Y-4290568D02*
G01*
X1810004Y-4386071D01*
X1850897Y-4290568D02*
G01*
X1810004Y-4386071D01*
X1977643Y-4290568D02*
G01*
X1977643Y-4386071D01*
X1977643Y-4311142D02*
G01*
X1963927Y-4297426D01*
X1950465Y-4290568D01*
X1929892Y-4290568D01*
X1916429Y-4297426D01*
X1902713Y-4311142D01*
X1895855Y-4331462D01*
X1895855Y-4345178D01*
X1902713Y-4365497D01*
X1916429Y-4379213D01*
X1929892Y-4386071D01*
X1950465Y-4386071D01*
X1963927Y-4379213D01*
X1977643Y-4365497D01*
X2022602Y-4290568D02*
G01*
X2022602Y-4386071D01*
X2022602Y-4331462D02*
G01*
X2029459Y-4311142D01*
X2043175Y-4297426D01*
X2056891Y-4290568D01*
X2077211Y-4290568D01*
X2203958Y-4290568D02*
G01*
X2203958Y-4386071D01*
X2203958Y-4311142D02*
G01*
X2190495Y-4297426D01*
X2176779Y-4290568D01*
X2156206Y-4290568D01*
X2142743Y-4297426D01*
X2129027Y-4311142D01*
X2122170Y-4331462D01*
X2122170Y-4345178D01*
X2129027Y-4365497D01*
X2142743Y-4379213D01*
X2156206Y-4386071D01*
X2176779Y-4386071D01*
X2190495Y-4379213D01*
X2203958Y-4365497D01*
X2269490Y-4242815D02*
G01*
X2269490Y-4358639D01*
X2276347Y-4379213D01*
X2290063Y-4386071D01*
X2303525Y-4386071D01*
X2249170Y-4290568D02*
G01*
X2296668Y-4290568D01*
X2348484Y-4290568D02*
G01*
X2348484Y-4386071D01*
X2348484Y-4317745D02*
G01*
X2369058Y-4297426D01*
X2382774Y-4290568D01*
X2403093Y-4290568D01*
X2416809Y-4297426D01*
X2423668Y-4317745D01*
X2423668Y-4386071D01*
X2468625Y-4331462D02*
G01*
X2550413Y-4331462D01*
X2550413Y-4317745D01*
X2543556Y-4304284D01*
X2536697Y-4297426D01*
X2523236Y-4290568D01*
X2502661Y-4290568D01*
X2488945Y-4297426D01*
X2475484Y-4311142D01*
X2468625Y-4331462D01*
X2468625Y-4345178D01*
X2475484Y-4365497D01*
X2488945Y-4379213D01*
X2502661Y-4386071D01*
X2523236Y-4386071D01*
X2536697Y-4379213D01*
X2550413Y-4365497D01*
X2697734Y-4297426D02*
G01*
X2690875Y-4283710D01*
X2677159Y-4276852D01*
X2656840Y-4276852D01*
X2643124Y-4283710D01*
X2636265Y-4290568D01*
X2629408Y-4311142D01*
X2629408Y-4331462D01*
X2636265Y-4345178D01*
X2649981Y-4352036D01*
X2670302Y-4352036D01*
X2684018Y-4345178D01*
X2690875Y-4331462D01*
X2656840Y-4276852D02*
G01*
X2643124Y-4290568D01*
X2636265Y-4311142D01*
X2636265Y-4331462D01*
X2643124Y-4345178D01*
X2649981Y-4352036D01*
X2697734Y-4276852D02*
G01*
X2690875Y-4331462D01*
X2690875Y-4345178D01*
X2704591Y-4352036D01*
X2718054Y-4352036D01*
X2731770Y-4338320D01*
X2738627Y-4317745D01*
X2738627Y-4304284D01*
X2731770Y-4283710D01*
X2724911Y-4269994D01*
X2711450Y-4256531D01*
X2697734Y-4249673D01*
X2677159Y-4242815D01*
X2656840Y-4242815D01*
X2636265Y-4249673D01*
X2622804Y-4256531D01*
X2609088Y-4269994D01*
X2602229Y-4283710D01*
X2595372Y-4304284D01*
X2595372Y-4324604D01*
X2602229Y-4345178D01*
X2609088Y-4358639D01*
X2622804Y-4372355D01*
X2636265Y-4379213D01*
X2656840Y-4386071D01*
X2677159Y-4386071D01*
X2697734Y-4379213D01*
X2711450Y-4372355D01*
X2718054Y-4365497D01*
X2704591Y-4276852D02*
G01*
X2697734Y-4331462D01*
X2697734Y-4345178D01*
X2704591Y-4352036D01*
X2817622Y-4290568D02*
G01*
X2804159Y-4297426D01*
X2790443Y-4311142D01*
X2783586Y-4331462D01*
X2783586Y-4345178D01*
X2790443Y-4365497D01*
X2804159Y-4379213D01*
X2817622Y-4386071D01*
X2838195Y-4386071D01*
X2851658Y-4379213D01*
X2865374Y-4365497D01*
X2872231Y-4345178D01*
X2872231Y-4331462D01*
X2865374Y-4311142D01*
X2851658Y-4297426D01*
X2838195Y-4290568D01*
X2817622Y-4290568D01*
X2917190Y-4290568D02*
G01*
X2917190Y-4358639D01*
X2924047Y-4379213D01*
X2937763Y-4386071D01*
X2958084Y-4386071D01*
X2971800Y-4379213D01*
X2992120Y-4358639D01*
X2992120Y-4290568D02*
G01*
X2992120Y-4386071D01*
X3057652Y-4242815D02*
G01*
X3057652Y-4358639D01*
X3064509Y-4379213D01*
X3078225Y-4386071D01*
X3091688Y-4386071D01*
X3037331Y-4290568D02*
G01*
X3085084Y-4290568D01*
X3136900Y-4242815D02*
G01*
X3136900Y-4386071D01*
X3215893Y-4290568D02*
G01*
X3202177Y-4297426D01*
X3188715Y-4311142D01*
X3181858Y-4331462D01*
X3181858Y-4345178D01*
X3188715Y-4365497D01*
X3202177Y-4379213D01*
X3215893Y-4386071D01*
X3236213Y-4386071D01*
X3249929Y-4379213D01*
X3263645Y-4365497D01*
X3270504Y-4345178D01*
X3270504Y-4331462D01*
X3263645Y-4311142D01*
X3249929Y-4297426D01*
X3236213Y-4290568D01*
X3215893Y-4290568D01*
X3349497Y-4290568D02*
G01*
X3335781Y-4297426D01*
X3322320Y-4311142D01*
X3315461Y-4331462D01*
X3315461Y-4345178D01*
X3322320Y-4365497D01*
X3335781Y-4379213D01*
X3349497Y-4386071D01*
X3370072Y-4386071D01*
X3383534Y-4379213D01*
X3397250Y-4365497D01*
X3404108Y-4345178D01*
X3404108Y-4331462D01*
X3397250Y-4311142D01*
X3383534Y-4297426D01*
X3370072Y-4290568D01*
X3349497Y-4290568D01*
X3449065Y-4242815D02*
G01*
X3449065Y-4386071D01*
X3517138Y-4290568D02*
G01*
X3449065Y-4358639D01*
X3476243Y-4331462D02*
G01*
X3523995Y-4386071D01*
X3575811Y-4352036D02*
G01*
X3568954Y-4358639D01*
X3575811Y-4365497D01*
X3582670Y-4358639D01*
X3575811Y-4352036D01*
X3709415Y-4311142D02*
G01*
X3695954Y-4297426D01*
X3682238Y-4290568D01*
X3661663Y-4290568D01*
X3648202Y-4297426D01*
X3634486Y-4311142D01*
X3627627Y-4331462D01*
X3627627Y-4345178D01*
X3634486Y-4365497D01*
X3648202Y-4379213D01*
X3661663Y-4386071D01*
X3682238Y-4386071D01*
X3695954Y-4379213D01*
X3709415Y-4365497D01*
X3788663Y-4290568D02*
G01*
X3774947Y-4297426D01*
X3761231Y-4311142D01*
X3754627Y-4331462D01*
X3754627Y-4345178D01*
X3761231Y-4365497D01*
X3774947Y-4379213D01*
X3788663Y-4386071D01*
X3808984Y-4386071D01*
X3822700Y-4379213D01*
X3836415Y-4365497D01*
X3843020Y-4345178D01*
X3843020Y-4331462D01*
X3836415Y-4311142D01*
X3822700Y-4297426D01*
X3808984Y-4290568D01*
X3788663Y-4290568D01*
X3888231Y-4290568D02*
G01*
X3888231Y-4386071D01*
X3888231Y-4317745D02*
G01*
X3908552Y-4297426D01*
X3922268Y-4290568D01*
X3942588Y-4290568D01*
X3956304Y-4297426D01*
X3963161Y-4317745D01*
X3963161Y-4386071D01*
X3963161Y-4317745D02*
G01*
X3983481Y-4297426D01*
X3997197Y-4290568D01*
X4017772Y-4290568D01*
X4031234Y-4297426D01*
X4038091Y-4317745D01*
X4038091Y-4386071D01*
D11*
X5373877Y-774192D02*
G01*
X5368543Y-763778D01*
X5358129Y-753363D01*
X5347970Y-748284D01*
X5327141Y-748284D01*
X5316727Y-753363D01*
X5306313Y-763778D01*
X5300979Y-774192D01*
X5295900Y-789939D01*
X5295900Y-815847D01*
X5300979Y-831342D01*
X5306313Y-841755D01*
X5316727Y-852170D01*
X5327141Y-857250D01*
X5347970Y-857250D01*
X5358129Y-852170D01*
X5368543Y-841755D01*
X5373877Y-831342D01*
X5408168Y-769112D02*
G01*
X5418581Y-763778D01*
X5434075Y-748284D01*
X5434075Y-857250D01*
X763651Y-291211D02*
G01*
X763651Y-400177D01*
X763651Y-400177D02*
G01*
X825880Y-400177D01*
X860170Y-291211D02*
G01*
X860170Y-400177D01*
X860170Y-291211D02*
G01*
X927735Y-291211D01*
X860170Y-343027D02*
G01*
X901827Y-343027D01*
X860170Y-400177D02*
G01*
X927735Y-400177D01*
X962025Y-291211D02*
G01*
X962025Y-400177D01*
X962025Y-291211D02*
G01*
X998601Y-291211D01*
X1014095Y-296290D01*
X1024509Y-306704D01*
X1029588Y-317119D01*
X1034922Y-332867D01*
X1034922Y-358775D01*
X1029588Y-374269D01*
X1024509Y-384682D01*
X1014095Y-395096D01*
X998601Y-400177D01*
X962025Y-400177D01*
X1069212Y-312038D02*
G01*
X1079627Y-306704D01*
X1095120Y-291211D01*
X1095120Y-400177D01*
X5241140Y-2293703D02*
G01*
X5241140Y-2371681D01*
X5246220Y-2387175D01*
X5256634Y-2397589D01*
X5272382Y-2402669D01*
X5282796Y-2402669D01*
X5298290Y-2397589D01*
X5308704Y-2387175D01*
X5313784Y-2371681D01*
X5313784Y-2293703D01*
X5348074Y-2314531D02*
G01*
X5358488Y-2309197D01*
X5374236Y-2293703D01*
X5374236Y-2402669D01*
X5840984Y-2514600D02*
G01*
X5918961Y-2514600D01*
X5934456Y-2509520D01*
X5944870Y-2499105D01*
X5949950Y-2483357D01*
X5949950Y-2472944D01*
X5944870Y-2457450D01*
X5934456Y-2447036D01*
X5918961Y-2441955D01*
X5840984Y-2441955D01*
X5866891Y-2402331D02*
G01*
X5861811Y-2402331D01*
X5851397Y-2397252D01*
X5846063Y-2391918D01*
X5840984Y-2381504D01*
X5840984Y-2360929D01*
X5846063Y-2350515D01*
X5851397Y-2345181D01*
X5861811Y-2340102D01*
X5872225Y-2340102D01*
X5882640Y-2345181D01*
X5898134Y-2355595D01*
X5949950Y-2407665D01*
X5949950Y-2334768D01*
X5283200Y-4024884D02*
G01*
X5283200Y-4133850D01*
X5283200Y-4024884D02*
G01*
X5329936Y-4024884D01*
X5345429Y-4029963D01*
X5350763Y-4035297D01*
X5355843Y-4045712D01*
X5355843Y-4056126D01*
X5350763Y-4066539D01*
X5345429Y-4071620D01*
X5329936Y-4076700D01*
X5283200Y-4076700D01*
X5319522Y-4076700D02*
G01*
X5355843Y-4133850D01*
X5390134Y-4045712D02*
G01*
X5400547Y-4040378D01*
X5416295Y-4024884D01*
X5416295Y-4133850D01*
D12*
X5267881Y-1036157D02*
G01*
X5187883Y-1036157D01*
X5323926Y-1036203D02*
G01*
X5403923Y-1036203D01*
X5267881Y-894189D02*
G01*
X5187883Y-894189D01*
X5323926Y-894237D02*
G01*
X5403923Y-894237D01*
X5156908Y-1005174D02*
G01*
X5156908Y-925169D01*
X5434901Y-925222D02*
G01*
X5434901Y-1005225D01*
X807399Y-483400D02*
G01*
X767400Y-523400D01*
X757400Y-533400D01*
X767400Y-543425D01*
X807399Y-583425D01*
X807399Y-483400D02*
G01*
X807399Y-583425D01*
X831722Y-635127D02*
G01*
X986662Y-635127D01*
X986662Y-431927D01*
X831722Y-431927D01*
X752982Y-637667D02*
G01*
X605662Y-637667D01*
X565022Y-597027D01*
X565022Y-470027D01*
X603122Y-431927D01*
X755522Y-431927D01*
X5383212Y-2625806D02*
G01*
X5383212Y-2639994D01*
X5315719Y-2439992D02*
G01*
X5383212Y-2439992D01*
X5383212Y-2454188D01*
X5183212Y-2454188D02*
G01*
X5183212Y-2439992D01*
X5250710Y-2439992D01*
X5183212Y-2639994D02*
G01*
X5183212Y-2625806D01*
X5250710Y-2639994D02*
G01*
X5183212Y-2639994D01*
X5383212Y-2639994D02*
G01*
X5315719Y-2639994D01*
D11*
X5325821Y-4307860D02*
G01*
X5421708Y-4307860D01*
X5421708Y-4175739D01*
X5325821Y-4175739D01*
X5240578Y-4307860D02*
G01*
X5144691Y-4307860D01*
X5144691Y-4175739D01*
X5240578Y-4175739D01*
D12*
G75*
G01*
X5403919Y-894237D02*
G02*
X5434901Y-925223I0J-30983D01*
G75*
G01*
X5434901Y-1005220D02*
G02*
X5403919Y-1036203I-30982J0D01*
G75*
G01*
X5187889Y-1036157D02*
G02*
X5156909Y-1005175I3J30982D01*
G75*
G01*
X5156909Y-925177D02*
G02*
X5187889Y-894189I30983J5D01*
G75*
G01
X5162553Y-2489233D02*
G03X5162553Y-2489233I-6350J0D01*
M02*
